<svg class="main-svg" xmlns="http://www.w3.org/2000/svg" xmlns:xlink="http://www.w3.org/1999/xlink" width="700" height="500" style="" viewBox="0 0 700 500"><rect x="0" y="0" width="700" height="500" style="fill: rgb(255, 255, 255); fill-opacity: 1;"/><defs id="defs-3998bb"><g class="clips"><clipPath id="clip3998bbxyplot" class="plotclip"><rect width="560.749224528752" height="367.96369203849514"/></clipPath><clipPath class="axesclip" id="clip3998bbx"><rect x="84.7769028871391" y="0" width="560.749224528752" height="500"/></clipPath><clipPath class="axesclip" id="clip3998bby"><rect x="0" y="64.5697412823397" width="700" height="367.96369203849514"/></clipPath><clipPath class="axesclip" id="clip3998bbxy"><rect x="84.7769028871391" y="64.5697412823397" width="560.749224528752" height="367.96369203849514"/></clipPath></g><g class="gradients"/><g class="patterns"/></defs><g class="bglayer"/><g class="layer-below"><g class="imagelayer"/><g class="shapelayer"/></g><g class="cartesianlayer"><g class="subplot xy"><g class="layer-subplot"><g class="shapelayer"/><g class="imagelayer"/></g><g class="gridlayer"><g class="x"><path class="xgrid crisp" transform="translate(100.6469028871391,0)" d="M0,64.5697412823397v367.96369203849514" style="stroke: rgb(0, 0, 0); stroke-opacity: 0.1; stroke-width: 0.5px;"/><path class="xgrid crisp" transform="translate(232.8969028871391,0)" d="M0,64.5697412823397v367.96369203849514" style="stroke: rgb(0, 0, 0); stroke-opacity: 0.1; stroke-width: 0.5px;"/><path class="xgrid crisp" transform="translate(365.1469028871391,0)" d="M0,64.5697412823397v367.96369203849514" style="stroke: rgb(0, 0, 0); stroke-opacity: 0.1; stroke-width: 0.5px;"/><path class="xgrid crisp" transform="translate(497.4069028871391,0)" d="M0,64.5697412823397v367.96369203849514" style="stroke: rgb(0, 0, 0); stroke-opacity: 0.1; stroke-width: 0.5px;"/><path class="xgrid crisp" transform="translate(629.656902887139,0)" d="M0,64.5697412823397v367.96369203849514" style="stroke: rgb(0, 0, 0); stroke-opacity: 0.1; stroke-width: 0.5px;"/></g><g class="y"><path class="ygrid crisp" transform="translate(0,417.40974128233967)" d="M84.7769028871391,0h560.749224528752" style="stroke: rgb(0, 0, 0); stroke-opacity: 0.1; stroke-width: 0.5px;"/><path class="ygrid crisp" transform="translate(0,363.3697412823397)" d="M84.7769028871391,0h560.749224528752" style="stroke: rgb(0, 0, 0); stroke-opacity: 0.1; stroke-width: 0.5px;"/><path class="ygrid crisp" transform="translate(0,309.33974128233973)" d="M84.7769028871391,0h560.749224528752" style="stroke: rgb(0, 0, 0); stroke-opacity: 0.1; stroke-width: 0.5px;"/><path class="ygrid crisp" transform="translate(0,255.2997412823397)" d="M84.7769028871391,0h560.749224528752" style="stroke: rgb(0, 0, 0); stroke-opacity: 0.1; stroke-width: 0.5px;"/><path class="ygrid crisp" transform="translate(0,201.26974128233968)" d="M84.7769028871391,0h560.749224528752" style="stroke: rgb(0, 0, 0); stroke-opacity: 0.1; stroke-width: 0.5px;"/><path class="ygrid crisp" transform="translate(0,147.22974128233972)" d="M84.7769028871391,0h560.749224528752" style="stroke: rgb(0, 0, 0); stroke-opacity: 0.1; stroke-width: 0.5px;"/><path class="ygrid crisp" transform="translate(0,93.1997412823397)" d="M84.7769028871391,0h560.749224528752" style="stroke: rgb(0, 0, 0); stroke-opacity: 0.1; stroke-width: 0.5px;"/></g></g><g class="zerolinelayer"/><path class="xlines-below"/><path class="ylines-below"/><g class="overlines-below"/><g class="xaxislayer-below"/><g class="yaxislayer-below"/><g class="overaxes-below"/><g class="plot" transform="translate(84.7769028871391,64.5697412823397)" clip-path="url(#clip3998bbxyplot)"><g class="scatterlayer mlayer"><g class="trace scatter trace0589e6" style="stroke-miterlimit: 2; opacity: 1;"><g class="fills"/><g class="errorbars"/><g class="lines"><path class="js-line" d="M15.87,352.84L16.95,328.49L17.16,326.17L19.31,309.38L20.31,303.55L25.29,281.39L26.28,277.79L33.25,256.53L35.24,251.36L43.2,233.24L47.18,225.33L58.34,206.01L60.73,202.31L74.34,183.41L78.39,178.4L90.87,164.35L95.27,159.85L112.16,144.34L120.26,137.79L137.63,125.38L147.7,119.11L166.71,108.88L175.65,104.74L191.34,98.43L199.89,95.48L217.04,90.52L225.64,88.51L244.66,85.14L253.71,84.04L272.17,82.79L281.58,82.67L297.42,83.23L307.09,84.05L325.61,86.65L334.47,88.38L350.83,92.43L359.12,94.92L376.7,101.22L385.98,105.13L402.82,113.35L412.45,118.76L431.01,130.76L439.93,137.36L457.52,152.21L461.79,156.23L474.6,169.44L478.98,174.4L492.11,190.92L496.91,197.67L506.5,212.67L511.29,221.08L521.75,242.34L523.49,246.4L530.45,264.83L532.2,270.18L537.42,289.13L538.29,292.91L542.02,313.22L542.38,315.77L544.34,335.65L544.52,338.8L544.88,352.84" style="vector-effect: non-scaling-stroke; fill: none; stroke: rgb(0, 154, 250); stroke-opacity: 1; stroke-width: 1px; opacity: 1;"/></g><g class="points"/><g class="text"/></g><g class="trace scatter trace06aa4a" style="stroke-miterlimit: 2; opacity: 1;"><g class="fills"/><g class="errorbars"/><g class="lines"><path class="js-line" d="M15.87,285.29L35.24,247.18L43.2,232.35L60.73,201.42L70.3,185.54L86.48,160.3L95.27,147.44L112.16,124.39L120.26,114.12L137.63,93.8L142.67,88.35L157.76,73.18L166.71,65.02L183.49,51.37L191.34,45.74L208.44,35.11L217.04,30.61L235.15,23.02L244.66,20.05L262.76,16.32L272.17,15.38L289.5,15.44L297.42,16.24L311.92,18.96L316.76,20.23L334.47,26.42L342.65,30.1L359.12,39.07L367.41,44.37L385.98,58.19L394.4,65.33L412.45,82.49L417.27,87.49L431.01,102.74L439.93,113.43L457.52,136.31L466.06,148.27L483.36,174.23L492.11,188.25L511.29,221.04L518.26,233.65L542.02,279.49L543.45,282.38L544.88,285.29" style="vector-effect: non-scaling-stroke; fill: none; stroke: rgb(227, 111, 71); stroke-opacity: 1; stroke-width: 1px; opacity: 1;"/></g><g class="points"/><g class="text"/></g></g></g><g class="overplot"/><path class="xlines-above crisp" d="M83.7769028871391,433.03343332083483H645.5261274158911" style="fill: none; stroke-width: 1px; stroke: rgb(0, 0, 0); stroke-opacity: 1;"/><path class="ylines-above crisp" d="M84.2769028871391,64.5697412823397V432.53343332083483" style="fill: none; stroke-width: 1px; stroke: rgb(0, 0, 0); stroke-opacity: 1;"/><g class="overlines-above"/><g class="xaxislayer-above"><path class="xtick ticks crisp" d="M0,432.53343332083483v-5" transform="translate(100.6469028871391,0)" style="stroke: rgb(0, 0, 0); stroke-opacity: 1; stroke-width: 1px;"/><path class="xtick ticks crisp" d="M0,432.53343332083483v-5" transform="translate(232.8969028871391,0)" style="stroke: rgb(0, 0, 0); stroke-opacity: 1; stroke-width: 1px;"/><path class="xtick ticks crisp" d="M0,432.53343332083483v-5" transform="translate(365.1469028871391,0)" style="stroke: rgb(0, 0, 0); stroke-opacity: 1; stroke-width: 1px;"/><path class="xtick ticks crisp" d="M0,432.53343332083483v-5" transform="translate(497.4069028871391,0)" style="stroke: rgb(0, 0, 0); stroke-opacity: 1; stroke-width: 1px;"/><path class="xtick ticks crisp" d="M0,432.53343332083483v-5" transform="translate(629.656902887139,0)" style="stroke: rgb(0, 0, 0); stroke-opacity: 1; stroke-width: 1px;"/><g class="xtick"><text text-anchor="middle" x="0" y="446.7334333208348" transform="translate(100.6469028871391,0)" style="font-family: sans-serif; font-size: 11px; fill: rgb(0, 0, 0); fill-opacity: 1; white-space: pre; opacity: 1;">-1.0</text></g><g class="xtick"><text text-anchor="middle" x="0" y="446.7334333208348" style="font-family: sans-serif; font-size: 11px; fill: rgb(0, 0, 0); fill-opacity: 1; white-space: pre; opacity: 1;" transform="translate(232.8969028871391,0)">-0.5</text></g><g class="xtick"><text text-anchor="middle" x="0" y="446.7334333208348" style="font-family: sans-serif; font-size: 11px; fill: rgb(0, 0, 0); fill-opacity: 1; white-space: pre; opacity: 1;" transform="translate(365.1469028871391,0)">0.0</text></g><g class="xtick"><text text-anchor="middle" x="0" y="446.7334333208348" style="font-family: sans-serif; font-size: 11px; fill: rgb(0, 0, 0); fill-opacity: 1; white-space: pre; opacity: 1;" transform="translate(497.4069028871391,0)">0.5</text></g><g class="xtick"><text text-anchor="middle" x="0" y="446.7334333208348" style="font-family: sans-serif; font-size: 11px; fill: rgb(0, 0, 0); fill-opacity: 1; white-space: pre; opacity: 1;" transform="translate(629.656902887139,0)">1.0</text></g></g><g class="yaxislayer-above"><path class="ytick ticks crisp" d="M84.7769028871391,0h5" transform="translate(0,417.40974128233967)" style="stroke: rgb(0, 0, 0); stroke-opacity: 1; stroke-width: 1px;"/><path class="ytick ticks crisp" d="M84.7769028871391,0h5" transform="translate(0,363.3697412823397)" style="stroke: rgb(0, 0, 0); stroke-opacity: 1; stroke-width: 1px;"/><path class="ytick ticks crisp" d="M84.7769028871391,0h5" transform="translate(0,309.33974128233973)" style="stroke: rgb(0, 0, 0); stroke-opacity: 1; stroke-width: 1px;"/><path class="ytick ticks crisp" d="M84.7769028871391,0h5" transform="translate(0,255.2997412823397)" style="stroke: rgb(0, 0, 0); stroke-opacity: 1; stroke-width: 1px;"/><path class="ytick ticks crisp" d="M84.7769028871391,0h5" transform="translate(0,201.26974128233968)" style="stroke: rgb(0, 0, 0); stroke-opacity: 1; stroke-width: 1px;"/><path class="ytick ticks crisp" d="M84.7769028871391,0h5" transform="translate(0,147.22974128233972)" style="stroke: rgb(0, 0, 0); stroke-opacity: 1; stroke-width: 1px;"/><path class="ytick ticks crisp" d="M84.7769028871391,0h5" transform="translate(0,93.1997412823397)" style="stroke: rgb(0, 0, 0); stroke-opacity: 1; stroke-width: 1px;"/><g class="ytick"><text text-anchor="end" x="81.5769028871391" y="3.8499999999999996" transform="translate(0,417.40974128233967)" style="font-family: sans-serif; font-size: 11px; fill: rgb(0, 0, 0); fill-opacity: 1; white-space: pre; opacity: 1;">0.0</text></g><g class="ytick"><text text-anchor="end" x="81.5769028871391" y="3.8499999999999996" style="font-family: sans-serif; font-size: 11px; fill: rgb(0, 0, 0); fill-opacity: 1; white-space: pre; opacity: 1;" transform="translate(0,363.3697412823397)">0.2</text></g><g class="ytick"><text text-anchor="end" x="81.5769028871391" y="3.8499999999999996" style="font-family: sans-serif; font-size: 11px; fill: rgb(0, 0, 0); fill-opacity: 1; white-space: pre; opacity: 1;" transform="translate(0,309.33974128233973)">0.4</text></g><g class="ytick"><text text-anchor="end" x="81.5769028871391" y="3.8499999999999996" style="font-family: sans-serif; font-size: 11px; fill: rgb(0, 0, 0); fill-opacity: 1; white-space: pre; opacity: 1;" transform="translate(0,255.2997412823397)">0.6</text></g><g class="ytick"><text text-anchor="end" x="81.5769028871391" y="3.8499999999999996" style="font-family: sans-serif; font-size: 11px; fill: rgb(0, 0, 0); fill-opacity: 1; white-space: pre; opacity: 1;" transform="translate(0,201.26974128233968)">0.8</text></g><g class="ytick"><text text-anchor="end" x="81.5769028871391" y="3.8499999999999996" style="font-family: sans-serif; font-size: 11px; fill: rgb(0, 0, 0); fill-opacity: 1; white-space: pre; opacity: 1;" transform="translate(0,147.22974128233972)">1.0</text></g><g class="ytick"><text text-anchor="end" x="81.5769028871391" y="3.8499999999999996" style="font-family: sans-serif; font-size: 11px; fill: rgb(0, 0, 0); fill-opacity: 1; white-space: pre; opacity: 1;" transform="translate(0,93.1997412823397)">1.2</text></g></g><g class="overaxes-above"/></g></g><g class="polarlayer"/><g class="ternarylayer"/><g class="geolayer"/><g class="funnelarealayer"/><g class="pielayer"/><g class="iciclelayer"/><g class="treemaplayer"/><g class="sunburstlayer"/><g class="glimages"/><defs id="topdefs-3998bb"><g class="clips"/><clipPath id="legend3998bb"><rect width="93" height="48" x="1" y="1"/></clipPath></defs><g class="layer-above"><g class="imagelayer"/><g class="shapelayer"/></g><g class="infolayer"><g class="legend" pointer-events="all" transform="translate(555,60)"><rect class="bg" shape-rendering="crispEdges" style="stroke: rgb(0, 0, 0); stroke-opacity: 1; fill: rgb(255, 255, 255); fill-opacity: 1; stroke-width: 1px;" width="94" height="49" x="0.5" y="0.5"/><g class="scrollbox" transform="" clip-path="url(#legend3998bb)"><g class="groups"><g class="traces" transform="translate(1,15.5)" style="opacity: 1;"><text class="legendtext" text-anchor="start" x="40" y="4.29" style="font-family: sans-serif; font-size: 11px; fill: rgb(0, 0, 0); fill-opacity: 1; white-space: pre;">x²+y²=1</text><g class="layers" style="opacity: 1;"><g class="legendfill"/><g class="legendlines"><path class="js-line" d="M5,0h30" style="fill: none; stroke: rgb(0, 154, 250); stroke-opacity: 1; stroke-width: 1px;"/></g><g class="legendsymbols"><g class="legendpoints"/></g></g><rect class="legendtoggle" x="0" y="-9.5" width="87.640625" height="19" style="fill: rgb(0, 0, 0); fill-opacity: 0;"/></g><g class="traces" transform="translate(1,34.5)" style="opacity: 1;"><text class="legendtext" text-anchor="start" x="40" y="4.29" style="font-family: sans-serif; font-size: 11px; fill: rgb(0, 0, 0); fill-opacity: 1; white-space: pre;">y=f(x,π/6)</text><g class="layers" style="opacity: 1;"><g class="legendfill"/><g class="legendlines"><path class="js-line" d="M5,0h30" style="fill: none; stroke: rgb(227, 111, 71); stroke-opacity: 1; stroke-width: 1px;"/></g><g class="legendsymbols"><g class="legendpoints"/></g></g><rect class="legendtoggle" x="0" y="-9.5" width="87.640625" height="19" style="fill: rgb(0, 0, 0); fill-opacity: 0;"/></g></g></g><rect class="scrollbar" rx="20" ry="3" width="0" height="0" style="fill: rgb(128, 139, 164); fill-opacity: 1;" x="0" y="0"/></g><g class="g-gtitle"/><g class="g-xtitle"/><g class="g-ytitle"/></g></svg>