<?xml version="1.0" encoding="utf-8"?>
<svg xmlns="http://www.w3.org/2000/svg" xmlns:xlink="http://www.w3.org/1999/xlink" width="528" height="336" viewBox="0 0 2112 1344">
<defs>
  <clipPath id="clip720">
    <rect x="0" y="0" width="2112" height="1344"/>
  </clipPath>
</defs>
<path clip-path="url(#clip720)" d="M0 1344 L2112 1344 L2112 2.13163e-14 L0 2.13163e-14  Z" fill="#ffffff" fill-rule="evenodd" fill-opacity="1"/>
<defs>
  <clipPath id="clip721">
    <rect x="422" y="0" width="1479" height="1344"/>
  </clipPath>
</defs>
<path clip-path="url(#clip720)" d="M183.394 1234.58 L2064.76 1234.58 L2064.76 47.2441 L183.394 47.2441  Z" fill="#ffffff" fill-rule="evenodd" fill-opacity="1"/>
<defs>
  <clipPath id="clip722">
    <rect x="183" y="47" width="1882" height="1188"/>
  </clipPath>
</defs>
<polyline clip-path="url(#clip722)" style="stroke:#000000; stroke-linecap:round; stroke-linejoin:round; stroke-width:2; stroke-opacity:0.1; fill:none" points="183.394,1234.58 183.394,47.2441 "/>
<polyline clip-path="url(#clip722)" style="stroke:#000000; stroke-linecap:round; stroke-linejoin:round; stroke-width:2; stroke-opacity:0.1; fill:none" points="559.666,1234.58 559.666,47.2441 "/>
<polyline clip-path="url(#clip722)" style="stroke:#000000; stroke-linecap:round; stroke-linejoin:round; stroke-width:2; stroke-opacity:0.1; fill:none" points="935.939,1234.58 935.939,47.2441 "/>
<polyline clip-path="url(#clip722)" style="stroke:#000000; stroke-linecap:round; stroke-linejoin:round; stroke-width:2; stroke-opacity:0.1; fill:none" points="1312.21,1234.58 1312.21,47.2441 "/>
<polyline clip-path="url(#clip722)" style="stroke:#000000; stroke-linecap:round; stroke-linejoin:round; stroke-width:2; stroke-opacity:0.1; fill:none" points="1688.48,1234.58 1688.48,47.2441 "/>
<polyline clip-path="url(#clip722)" style="stroke:#000000; stroke-linecap:round; stroke-linejoin:round; stroke-width:2; stroke-opacity:0.1; fill:none" points="2064.76,1234.58 2064.76,47.2441 "/>
<polyline clip-path="url(#clip722)" style="stroke:#000000; stroke-linecap:round; stroke-linejoin:round; stroke-width:2; stroke-opacity:0.1; fill:none" points="183.394,1148.35 2064.76,1148.35 "/>
<polyline clip-path="url(#clip722)" style="stroke:#000000; stroke-linecap:round; stroke-linejoin:round; stroke-width:2; stroke-opacity:0.1; fill:none" points="183.394,924.859 2064.76,924.859 "/>
<polyline clip-path="url(#clip722)" style="stroke:#000000; stroke-linecap:round; stroke-linejoin:round; stroke-width:2; stroke-opacity:0.1; fill:none" points="183.394,701.368 2064.76,701.368 "/>
<polyline clip-path="url(#clip722)" style="stroke:#000000; stroke-linecap:round; stroke-linejoin:round; stroke-width:2; stroke-opacity:0.1; fill:none" points="183.394,477.877 2064.76,477.877 "/>
<polyline clip-path="url(#clip722)" style="stroke:#000000; stroke-linecap:round; stroke-linejoin:round; stroke-width:2; stroke-opacity:0.1; fill:none" points="183.394,254.387 2064.76,254.387 "/>
<polyline clip-path="url(#clip720)" style="stroke:#000000; stroke-linecap:round; stroke-linejoin:round; stroke-width:4; stroke-opacity:1; fill:none" points="183.394,1234.58 2064.76,1234.58 "/>
<polyline clip-path="url(#clip720)" style="stroke:#000000; stroke-linecap:round; stroke-linejoin:round; stroke-width:4; stroke-opacity:1; fill:none" points="183.394,1234.58 183.394,1215.68 "/>
<polyline clip-path="url(#clip720)" style="stroke:#000000; stroke-linecap:round; stroke-linejoin:round; stroke-width:4; stroke-opacity:1; fill:none" points="559.666,1234.58 559.666,1215.68 "/>
<polyline clip-path="url(#clip720)" style="stroke:#000000; stroke-linecap:round; stroke-linejoin:round; stroke-width:4; stroke-opacity:1; fill:none" points="935.939,1234.58 935.939,1215.68 "/>
<polyline clip-path="url(#clip720)" style="stroke:#000000; stroke-linecap:round; stroke-linejoin:round; stroke-width:4; stroke-opacity:1; fill:none" points="1312.21,1234.58 1312.21,1215.68 "/>
<polyline clip-path="url(#clip720)" style="stroke:#000000; stroke-linecap:round; stroke-linejoin:round; stroke-width:4; stroke-opacity:1; fill:none" points="1688.48,1234.58 1688.48,1215.68 "/>
<polyline clip-path="url(#clip720)" style="stroke:#000000; stroke-linecap:round; stroke-linejoin:round; stroke-width:4; stroke-opacity:1; fill:none" points="2064.76,1234.58 2064.76,1215.68 "/>
<path clip-path="url(#clip720)" d="M160.778 1263.19 Q157.167 1263.19 155.339 1266.76 Q153.533 1270.3 153.533 1277.43 Q153.533 1284.54 155.339 1288.1 Q157.167 1291.64 160.778 1291.64 Q164.413 1291.64 166.218 1288.1 Q168.047 1284.54 168.047 1277.43 Q168.047 1270.3 166.218 1266.76 Q164.413 1263.19 160.778 1263.19 M160.778 1259.49 Q166.589 1259.49 169.644 1264.1 Q172.723 1268.68 172.723 1277.43 Q172.723 1286.16 169.644 1290.76 Q166.589 1295.35 160.778 1295.35 Q154.968 1295.35 151.89 1290.76 Q148.834 1286.16 148.834 1277.43 Q148.834 1268.68 151.89 1264.1 Q154.968 1259.49 160.778 1259.49 Z" fill="#000000" fill-rule="nonzero" fill-opacity="1" /><path clip-path="url(#clip720)" d="M180.94 1288.8 L185.825 1288.8 L185.825 1294.67 L180.94 1294.67 L180.94 1288.8 Z" fill="#000000" fill-rule="nonzero" fill-opacity="1" /><path clip-path="url(#clip720)" d="M206.01 1263.19 Q202.399 1263.19 200.57 1266.76 Q198.764 1270.3 198.764 1277.43 Q198.764 1284.54 200.57 1288.1 Q202.399 1291.64 206.01 1291.64 Q209.644 1291.64 211.449 1288.1 Q213.278 1284.54 213.278 1277.43 Q213.278 1270.3 211.449 1266.76 Q209.644 1263.19 206.01 1263.19 M206.01 1259.49 Q211.82 1259.49 214.875 1264.1 Q217.954 1268.68 217.954 1277.43 Q217.954 1286.16 214.875 1290.76 Q211.82 1295.35 206.01 1295.35 Q200.199 1295.35 197.121 1290.76 Q194.065 1286.16 194.065 1277.43 Q194.065 1268.68 197.121 1264.1 Q200.199 1259.49 206.01 1259.49 Z" fill="#000000" fill-rule="nonzero" fill-opacity="1" /><path clip-path="url(#clip720)" d="M537.849 1263.19 Q534.238 1263.19 532.41 1266.76 Q530.604 1270.3 530.604 1277.43 Q530.604 1284.54 532.41 1288.1 Q534.238 1291.64 537.849 1291.64 Q541.484 1291.64 543.289 1288.1 Q545.118 1284.54 545.118 1277.43 Q545.118 1270.3 543.289 1266.76 Q541.484 1263.19 537.849 1263.19 M537.849 1259.49 Q543.66 1259.49 546.715 1264.1 Q549.794 1268.68 549.794 1277.43 Q549.794 1286.16 546.715 1290.76 Q543.66 1295.35 537.849 1295.35 Q532.039 1295.35 528.961 1290.76 Q525.905 1286.16 525.905 1277.43 Q525.905 1268.68 528.961 1264.1 Q532.039 1259.49 537.849 1259.49 Z" fill="#000000" fill-rule="nonzero" fill-opacity="1" /><path clip-path="url(#clip720)" d="M558.011 1288.8 L562.896 1288.8 L562.896 1294.67 L558.011 1294.67 L558.011 1288.8 Z" fill="#000000" fill-rule="nonzero" fill-opacity="1" /><path clip-path="url(#clip720)" d="M577.108 1290.74 L593.428 1290.74 L593.428 1294.67 L571.483 1294.67 L571.483 1290.74 Q574.145 1287.99 578.729 1283.36 Q583.335 1278.7 584.516 1277.36 Q586.761 1274.84 587.641 1273.1 Q588.544 1271.34 588.544 1269.65 Q588.544 1266.9 586.599 1265.16 Q584.678 1263.42 581.576 1263.42 Q579.377 1263.42 576.923 1264.19 Q574.493 1264.95 571.715 1266.5 L571.715 1261.78 Q574.539 1260.65 576.993 1260.07 Q579.446 1259.49 581.483 1259.49 Q586.854 1259.49 590.048 1262.17 Q593.243 1264.86 593.243 1269.35 Q593.243 1271.48 592.432 1273.4 Q591.645 1275.3 589.539 1277.89 Q588.96 1278.56 585.858 1281.78 Q582.757 1284.98 577.108 1290.74 Z" fill="#000000" fill-rule="nonzero" fill-opacity="1" /><path clip-path="url(#clip720)" d="M913.08 1263.19 Q909.469 1263.19 907.64 1266.76 Q905.835 1270.3 905.835 1277.43 Q905.835 1284.54 907.64 1288.1 Q909.469 1291.64 913.08 1291.64 Q916.714 1291.64 918.52 1288.1 Q920.349 1284.54 920.349 1277.43 Q920.349 1270.3 918.52 1266.76 Q916.714 1263.19 913.08 1263.19 M913.08 1259.49 Q918.89 1259.49 921.946 1264.1 Q925.024 1268.68 925.024 1277.43 Q925.024 1286.16 921.946 1290.76 Q918.89 1295.35 913.08 1295.35 Q907.27 1295.35 904.191 1290.76 Q901.136 1286.16 901.136 1277.43 Q901.136 1268.68 904.191 1264.1 Q907.27 1259.49 913.08 1259.49 Z" fill="#000000" fill-rule="nonzero" fill-opacity="1" /><path clip-path="url(#clip720)" d="M933.242 1288.8 L938.126 1288.8 L938.126 1294.67 L933.242 1294.67 L933.242 1288.8 Z" fill="#000000" fill-rule="nonzero" fill-opacity="1" /><path clip-path="url(#clip720)" d="M961.159 1264.19 L949.353 1282.64 L961.159 1282.64 L961.159 1264.19 M959.932 1260.11 L965.811 1260.11 L965.811 1282.64 L970.742 1282.64 L970.742 1286.53 L965.811 1286.53 L965.811 1294.67 L961.159 1294.67 L961.159 1286.53 L945.557 1286.53 L945.557 1282.01 L959.932 1260.11 Z" fill="#000000" fill-rule="nonzero" fill-opacity="1" /><path clip-path="url(#clip720)" d="M1289.51 1263.19 Q1285.9 1263.19 1284.07 1266.76 Q1282.27 1270.3 1282.27 1277.43 Q1282.27 1284.54 1284.07 1288.1 Q1285.9 1291.64 1289.51 1291.64 Q1293.15 1291.64 1294.95 1288.1 Q1296.78 1284.54 1296.78 1277.43 Q1296.78 1270.3 1294.95 1266.76 Q1293.15 1263.19 1289.51 1263.19 M1289.51 1259.49 Q1295.32 1259.49 1298.38 1264.1 Q1301.46 1268.68 1301.46 1277.43 Q1301.46 1286.16 1298.38 1290.76 Q1295.32 1295.35 1289.51 1295.35 Q1283.7 1295.35 1280.63 1290.76 Q1277.57 1286.16 1277.57 1277.43 Q1277.57 1268.68 1280.63 1264.1 Q1283.7 1259.49 1289.51 1259.49 Z" fill="#000000" fill-rule="nonzero" fill-opacity="1" /><path clip-path="url(#clip720)" d="M1309.68 1288.8 L1314.56 1288.8 L1314.56 1294.67 L1309.68 1294.67 L1309.68 1288.8 Z" fill="#000000" fill-rule="nonzero" fill-opacity="1" /><path clip-path="url(#clip720)" d="M1335.32 1275.53 Q1332.18 1275.53 1330.32 1277.68 Q1328.5 1279.84 1328.5 1283.59 Q1328.5 1287.31 1330.32 1289.49 Q1332.18 1291.64 1335.32 1291.64 Q1338.47 1291.64 1340.3 1289.49 Q1342.15 1287.31 1342.15 1283.59 Q1342.15 1279.84 1340.3 1277.68 Q1338.47 1275.53 1335.32 1275.53 M1344.61 1260.88 L1344.61 1265.14 Q1342.85 1264.3 1341.04 1263.86 Q1339.26 1263.42 1337.5 1263.42 Q1332.87 1263.42 1330.42 1266.55 Q1327.99 1269.67 1327.64 1275.99 Q1329.01 1273.98 1331.07 1272.92 Q1333.13 1271.83 1335.6 1271.83 Q1340.81 1271.83 1343.82 1275 Q1346.85 1278.15 1346.85 1283.59 Q1346.85 1288.91 1343.7 1292.13 Q1340.56 1295.35 1335.32 1295.35 Q1329.33 1295.35 1326.16 1290.76 Q1322.99 1286.16 1322.99 1277.43 Q1322.99 1269.24 1326.88 1264.37 Q1330.76 1259.49 1337.32 1259.49 Q1339.07 1259.49 1340.86 1259.84 Q1342.66 1260.18 1344.61 1260.88 Z" fill="#000000" fill-rule="nonzero" fill-opacity="1" /><path clip-path="url(#clip720)" d="M1665.91 1263.19 Q1662.3 1263.19 1660.47 1266.76 Q1658.67 1270.3 1658.67 1277.43 Q1658.67 1284.54 1660.47 1288.1 Q1662.3 1291.64 1665.91 1291.64 Q1669.55 1291.64 1671.35 1288.1 Q1673.18 1284.54 1673.18 1277.43 Q1673.18 1270.3 1671.35 1266.76 Q1669.55 1263.19 1665.91 1263.19 M1665.91 1259.49 Q1671.72 1259.49 1674.78 1264.1 Q1677.86 1268.68 1677.86 1277.43 Q1677.86 1286.16 1674.78 1290.76 Q1671.72 1295.35 1665.91 1295.35 Q1660.1 1295.35 1657.03 1290.76 Q1653.97 1286.16 1653.97 1277.43 Q1653.97 1268.68 1657.03 1264.1 Q1660.1 1259.49 1665.91 1259.49 Z" fill="#000000" fill-rule="nonzero" fill-opacity="1" /><path clip-path="url(#clip720)" d="M1686.08 1288.8 L1690.96 1288.8 L1690.96 1294.67 L1686.08 1294.67 L1686.08 1288.8 Z" fill="#000000" fill-rule="nonzero" fill-opacity="1" /><path clip-path="url(#clip720)" d="M1711.15 1278.26 Q1707.81 1278.26 1705.89 1280.05 Q1703.99 1281.83 1703.99 1284.95 Q1703.99 1288.08 1705.89 1289.86 Q1707.81 1291.64 1711.15 1291.64 Q1714.48 1291.64 1716.4 1289.86 Q1718.32 1288.05 1718.32 1284.95 Q1718.32 1281.83 1716.4 1280.05 Q1714.5 1278.26 1711.15 1278.26 M1706.47 1276.27 Q1703.46 1275.53 1701.77 1273.47 Q1700.1 1271.41 1700.1 1268.45 Q1700.1 1264.3 1703.04 1261.9 Q1706.01 1259.49 1711.15 1259.49 Q1716.31 1259.49 1719.25 1261.9 Q1722.19 1264.3 1722.19 1268.45 Q1722.19 1271.41 1720.5 1273.47 Q1718.83 1275.53 1715.84 1276.27 Q1719.22 1277.06 1721.1 1279.35 Q1723 1281.64 1723 1284.95 Q1723 1289.98 1719.92 1292.66 Q1716.86 1295.35 1711.15 1295.35 Q1705.43 1295.35 1702.35 1292.66 Q1699.29 1289.98 1699.29 1284.95 Q1699.29 1281.64 1701.19 1279.35 Q1703.09 1277.06 1706.47 1276.27 M1704.76 1268.89 Q1704.76 1271.57 1706.42 1273.08 Q1708.11 1274.58 1711.15 1274.58 Q1714.15 1274.58 1715.84 1273.08 Q1717.56 1271.57 1717.56 1268.89 Q1717.56 1266.2 1715.84 1264.7 Q1714.15 1263.19 1711.15 1263.19 Q1708.11 1263.19 1706.42 1264.7 Q1704.76 1266.2 1704.76 1268.89 Z" fill="#000000" fill-rule="nonzero" fill-opacity="1" /><path clip-path="url(#clip720)" d="M2031.91 1290.74 L2039.55 1290.74 L2039.55 1264.37 L2031.24 1266.04 L2031.24 1261.78 L2039.5 1260.11 L2044.18 1260.11 L2044.18 1290.74 L2051.82 1290.74 L2051.82 1294.67 L2031.91 1294.67 L2031.91 1290.74 Z" fill="#000000" fill-rule="nonzero" fill-opacity="1" /><path clip-path="url(#clip720)" d="M2061.26 1288.8 L2066.14 1288.8 L2066.14 1294.67 L2061.26 1294.67 L2061.26 1288.8 Z" fill="#000000" fill-rule="nonzero" fill-opacity="1" /><path clip-path="url(#clip720)" d="M2086.33 1263.19 Q2082.72 1263.19 2080.89 1266.76 Q2079.08 1270.3 2079.08 1277.43 Q2079.08 1284.54 2080.89 1288.1 Q2082.72 1291.64 2086.33 1291.64 Q2089.96 1291.64 2091.77 1288.1 Q2093.6 1284.54 2093.6 1277.43 Q2093.6 1270.3 2091.77 1266.76 Q2089.96 1263.19 2086.33 1263.19 M2086.33 1259.49 Q2092.14 1259.49 2095.2 1264.1 Q2098.27 1268.68 2098.27 1277.43 Q2098.27 1286.16 2095.2 1290.76 Q2092.14 1295.35 2086.33 1295.35 Q2080.52 1295.35 2077.44 1290.76 Q2074.39 1286.16 2074.39 1277.43 Q2074.39 1268.68 2077.44 1264.1 Q2080.52 1259.49 2086.33 1259.49 Z" fill="#000000" fill-rule="nonzero" fill-opacity="1" /><polyline clip-path="url(#clip720)" style="stroke:#000000; stroke-linecap:round; stroke-linejoin:round; stroke-width:4; stroke-opacity:1; fill:none" points="183.394,1234.58 183.394,47.2441 "/>
<polyline clip-path="url(#clip720)" style="stroke:#000000; stroke-linecap:round; stroke-linejoin:round; stroke-width:4; stroke-opacity:1; fill:none" points="183.394,1148.35 202.292,1148.35 "/>
<polyline clip-path="url(#clip720)" style="stroke:#000000; stroke-linecap:round; stroke-linejoin:round; stroke-width:4; stroke-opacity:1; fill:none" points="183.394,924.859 202.292,924.859 "/>
<polyline clip-path="url(#clip720)" style="stroke:#000000; stroke-linecap:round; stroke-linejoin:round; stroke-width:4; stroke-opacity:1; fill:none" points="183.394,701.368 202.292,701.368 "/>
<polyline clip-path="url(#clip720)" style="stroke:#000000; stroke-linecap:round; stroke-linejoin:round; stroke-width:4; stroke-opacity:1; fill:none" points="183.394,477.877 202.292,477.877 "/>
<polyline clip-path="url(#clip720)" style="stroke:#000000; stroke-linecap:round; stroke-linejoin:round; stroke-width:4; stroke-opacity:1; fill:none" points="183.394,254.387 202.292,254.387 "/>
<path clip-path="url(#clip720)" d="M64.3765 1134.15 Q60.7654 1134.15 58.9367 1137.71 Q57.1312 1141.25 57.1312 1148.38 Q57.1312 1155.49 58.9367 1159.06 Q60.7654 1162.6 64.3765 1162.6 Q68.0107 1162.6 69.8163 1159.06 Q71.645 1155.49 71.645 1148.38 Q71.645 1141.25 69.8163 1137.71 Q68.0107 1134.15 64.3765 1134.15 M64.3765 1130.44 Q70.1867 1130.44 73.2422 1135.05 Q76.3209 1139.63 76.3209 1148.38 Q76.3209 1157.11 73.2422 1161.72 Q70.1867 1166.3 64.3765 1166.3 Q58.5664 1166.3 55.4877 1161.72 Q52.4321 1157.11 52.4321 1148.38 Q52.4321 1139.63 55.4877 1135.05 Q58.5664 1130.44 64.3765 1130.44 Z" fill="#000000" fill-rule="nonzero" fill-opacity="1" /><path clip-path="url(#clip720)" d="M84.5384 1159.75 L89.4227 1159.75 L89.4227 1165.63 L84.5384 1165.63 L84.5384 1159.75 Z" fill="#000000" fill-rule="nonzero" fill-opacity="1" /><path clip-path="url(#clip720)" d="M103.636 1161.69 L119.955 1161.69 L119.955 1165.63 L98.0106 1165.63 L98.0106 1161.69 Q100.673 1158.94 105.256 1154.31 Q109.862 1149.66 111.043 1148.31 Q113.288 1145.79 114.168 1144.06 Q115.071 1142.3 115.071 1140.61 Q115.071 1137.85 113.126 1136.12 Q111.205 1134.38 108.103 1134.38 Q105.904 1134.38 103.45 1135.14 Q101.02 1135.91 98.2421 1137.46 L98.2421 1132.74 Q101.066 1131.6 103.52 1131.02 Q105.974 1130.44 108.011 1130.44 Q113.381 1130.44 116.575 1133.13 Q119.77 1135.81 119.77 1140.31 Q119.77 1142.44 118.96 1144.36 Q118.173 1146.25 116.066 1148.85 Q115.487 1149.52 112.386 1152.74 Q109.284 1155.93 103.636 1161.69 Z" fill="#000000" fill-rule="nonzero" fill-opacity="1" /><path clip-path="url(#clip720)" d="M139.77 1134.15 Q136.159 1134.15 134.33 1137.71 Q132.524 1141.25 132.524 1148.38 Q132.524 1155.49 134.33 1159.06 Q136.159 1162.6 139.77 1162.6 Q143.404 1162.6 145.209 1159.06 Q147.038 1155.49 147.038 1148.38 Q147.038 1141.25 145.209 1137.71 Q143.404 1134.15 139.77 1134.15 M139.77 1130.44 Q145.58 1130.44 148.635 1135.05 Q151.714 1139.63 151.714 1148.38 Q151.714 1157.11 148.635 1161.72 Q145.58 1166.3 139.77 1166.3 Q133.959 1166.3 130.881 1161.72 Q127.825 1157.11 127.825 1148.38 Q127.825 1139.63 130.881 1135.05 Q133.959 1130.44 139.77 1130.44 Z" fill="#000000" fill-rule="nonzero" fill-opacity="1" /><path clip-path="url(#clip720)" d="M65.3719 910.657 Q61.7608 910.657 59.9321 914.222 Q58.1265 917.764 58.1265 924.894 Q58.1265 932 59.9321 935.565 Q61.7608 939.106 65.3719 939.106 Q69.0061 939.106 70.8117 935.565 Q72.6404 932 72.6404 924.894 Q72.6404 917.764 70.8117 914.222 Q69.0061 910.657 65.3719 910.657 M65.3719 906.954 Q71.182 906.954 74.2376 911.56 Q77.3163 916.144 77.3163 924.894 Q77.3163 933.62 74.2376 938.227 Q71.182 942.81 65.3719 942.81 Q59.5617 942.81 56.483 938.227 Q53.4275 933.62 53.4275 924.894 Q53.4275 916.144 56.483 911.56 Q59.5617 906.954 65.3719 906.954 Z" fill="#000000" fill-rule="nonzero" fill-opacity="1" /><path clip-path="url(#clip720)" d="M85.5338 936.259 L90.418 936.259 L90.418 942.139 L85.5338 942.139 L85.5338 936.259 Z" fill="#000000" fill-rule="nonzero" fill-opacity="1" /><path clip-path="url(#clip720)" d="M104.631 938.204 L120.95 938.204 L120.95 942.139 L99.006 942.139 L99.006 938.204 Q101.668 935.449 106.251 930.819 Q110.858 926.167 112.038 924.824 Q114.284 922.301 115.163 920.565 Q116.066 918.806 116.066 917.116 Q116.066 914.361 114.122 912.625 Q112.2 910.889 109.098 910.889 Q106.899 910.889 104.446 911.653 Q102.015 912.417 99.2374 913.968 L99.2374 909.245 Q102.061 908.111 104.515 907.532 Q106.969 906.954 109.006 906.954 Q114.376 906.954 117.571 909.639 Q120.765 912.324 120.765 916.815 Q120.765 918.944 119.955 920.866 Q119.168 922.764 117.061 925.356 Q116.483 926.028 113.381 929.245 Q110.279 932.44 104.631 938.204 Z" fill="#000000" fill-rule="nonzero" fill-opacity="1" /><path clip-path="url(#clip720)" d="M130.811 907.579 L149.168 907.579 L149.168 911.514 L135.094 911.514 L135.094 919.986 Q136.112 919.639 137.131 919.477 Q138.149 919.292 139.168 919.292 Q144.955 919.292 148.334 922.463 Q151.714 925.634 151.714 931.051 Q151.714 936.63 148.242 939.731 Q144.77 942.81 138.45 942.81 Q136.274 942.81 134.006 942.44 Q131.76 942.069 129.353 941.329 L129.353 936.63 Q131.436 937.764 133.659 938.319 Q135.881 938.875 138.358 938.875 Q142.362 938.875 144.7 936.768 Q147.038 934.662 147.038 931.051 Q147.038 927.44 144.7 925.333 Q142.362 923.227 138.358 923.227 Q136.483 923.227 134.608 923.644 Q132.756 924.06 130.811 924.94 L130.811 907.579 Z" fill="#000000" fill-rule="nonzero" fill-opacity="1" /><path clip-path="url(#clip720)" d="M64.3765 687.167 Q60.7654 687.167 58.9367 690.732 Q57.1312 694.273 57.1312 701.403 Q57.1312 708.509 58.9367 712.074 Q60.7654 715.616 64.3765 715.616 Q68.0107 715.616 69.8163 712.074 Q71.645 708.509 71.645 701.403 Q71.645 694.273 69.8163 690.732 Q68.0107 687.167 64.3765 687.167 M64.3765 683.463 Q70.1867 683.463 73.2422 688.07 Q76.3209 692.653 76.3209 701.403 Q76.3209 710.13 73.2422 714.736 Q70.1867 719.319 64.3765 719.319 Q58.5664 719.319 55.4877 714.736 Q52.4321 710.13 52.4321 701.403 Q52.4321 692.653 55.4877 688.07 Q58.5664 683.463 64.3765 683.463 Z" fill="#000000" fill-rule="nonzero" fill-opacity="1" /><path clip-path="url(#clip720)" d="M84.5384 712.768 L89.4227 712.768 L89.4227 718.648 L84.5384 718.648 L84.5384 712.768 Z" fill="#000000" fill-rule="nonzero" fill-opacity="1" /><path clip-path="url(#clip720)" d="M113.774 700.014 Q117.131 700.731 119.006 703 Q120.904 705.268 120.904 708.602 Q120.904 713.718 117.385 716.518 Q113.867 719.319 107.386 719.319 Q105.21 719.319 102.895 718.88 Q100.603 718.463 98.1495 717.606 L98.1495 713.093 Q100.094 714.227 102.409 714.805 Q104.724 715.384 107.247 715.384 Q111.645 715.384 113.936 713.648 Q116.251 711.912 116.251 708.602 Q116.251 705.546 114.098 703.833 Q111.969 702.097 108.149 702.097 L104.122 702.097 L104.122 698.255 L108.335 698.255 Q111.784 698.255 113.612 696.889 Q115.441 695.5 115.441 692.907 Q115.441 690.245 113.543 688.833 Q111.668 687.398 108.149 687.398 Q106.228 687.398 104.029 687.815 Q101.83 688.232 99.1911 689.111 L99.1911 684.945 Q101.853 684.204 104.168 683.833 Q106.506 683.463 108.566 683.463 Q113.89 683.463 116.992 685.894 Q120.094 688.301 120.094 692.421 Q120.094 695.292 118.45 697.282 Q116.807 699.25 113.774 700.014 Z" fill="#000000" fill-rule="nonzero" fill-opacity="1" /><path clip-path="url(#clip720)" d="M139.77 687.167 Q136.159 687.167 134.33 690.732 Q132.524 694.273 132.524 701.403 Q132.524 708.509 134.33 712.074 Q136.159 715.616 139.77 715.616 Q143.404 715.616 145.209 712.074 Q147.038 708.509 147.038 701.403 Q147.038 694.273 145.209 690.732 Q143.404 687.167 139.77 687.167 M139.77 683.463 Q145.58 683.463 148.635 688.07 Q151.714 692.653 151.714 701.403 Q151.714 710.13 148.635 714.736 Q145.58 719.319 139.77 719.319 Q133.959 719.319 130.881 714.736 Q127.825 710.13 127.825 701.403 Q127.825 692.653 130.881 688.07 Q133.959 683.463 139.77 683.463 Z" fill="#000000" fill-rule="nonzero" fill-opacity="1" /><path clip-path="url(#clip720)" d="M65.3719 463.676 Q61.7608 463.676 59.9321 467.241 Q58.1265 470.782 58.1265 477.912 Q58.1265 485.018 59.9321 488.583 Q61.7608 492.125 65.3719 492.125 Q69.0061 492.125 70.8117 488.583 Q72.6404 485.018 72.6404 477.912 Q72.6404 470.782 70.8117 467.241 Q69.0061 463.676 65.3719 463.676 M65.3719 459.972 Q71.182 459.972 74.2376 464.579 Q77.3163 469.162 77.3163 477.912 Q77.3163 486.639 74.2376 491.245 Q71.182 495.829 65.3719 495.829 Q59.5617 495.829 56.483 491.245 Q53.4275 486.639 53.4275 477.912 Q53.4275 469.162 56.483 464.579 Q59.5617 459.972 65.3719 459.972 Z" fill="#000000" fill-rule="nonzero" fill-opacity="1" /><path clip-path="url(#clip720)" d="M85.5338 489.278 L90.418 489.278 L90.418 495.157 L85.5338 495.157 L85.5338 489.278 Z" fill="#000000" fill-rule="nonzero" fill-opacity="1" /><path clip-path="url(#clip720)" d="M114.77 476.523 Q118.126 477.241 120.001 479.509 Q121.899 481.778 121.899 485.111 Q121.899 490.227 118.381 493.028 Q114.862 495.829 108.381 495.829 Q106.205 495.829 103.89 495.389 Q101.599 494.972 99.1448 494.116 L99.1448 489.602 Q101.089 490.736 103.404 491.315 Q105.719 491.893 108.242 491.893 Q112.64 491.893 114.932 490.157 Q117.247 488.421 117.247 485.111 Q117.247 482.056 115.094 480.343 Q112.964 478.606 109.145 478.606 L105.117 478.606 L105.117 474.764 L109.33 474.764 Q112.779 474.764 114.608 473.398 Q116.436 472.009 116.436 469.417 Q116.436 466.755 114.538 465.343 Q112.663 463.907 109.145 463.907 Q107.223 463.907 105.024 464.324 Q102.825 464.741 100.186 465.62 L100.186 461.454 Q102.849 460.713 105.163 460.343 Q107.501 459.972 109.561 459.972 Q114.885 459.972 117.987 462.403 Q121.089 464.81 121.089 468.931 Q121.089 471.801 119.446 473.792 Q117.802 475.759 114.77 476.523 Z" fill="#000000" fill-rule="nonzero" fill-opacity="1" /><path clip-path="url(#clip720)" d="M130.811 460.597 L149.168 460.597 L149.168 464.532 L135.094 464.532 L135.094 473.005 Q136.112 472.657 137.131 472.495 Q138.149 472.31 139.168 472.31 Q144.955 472.31 148.334 475.481 Q151.714 478.653 151.714 484.069 Q151.714 489.648 148.242 492.75 Q144.77 495.829 138.45 495.829 Q136.274 495.829 134.006 495.458 Q131.76 495.088 129.353 494.347 L129.353 489.648 Q131.436 490.782 133.659 491.338 Q135.881 491.893 138.358 491.893 Q142.362 491.893 144.7 489.787 Q147.038 487.68 147.038 484.069 Q147.038 480.458 144.7 478.352 Q142.362 476.245 138.358 476.245 Q136.483 476.245 134.608 476.662 Q132.756 477.079 130.811 477.958 L130.811 460.597 Z" fill="#000000" fill-rule="nonzero" fill-opacity="1" /><path clip-path="url(#clip720)" d="M64.3765 240.185 Q60.7654 240.185 58.9367 243.75 Q57.1312 247.292 57.1312 254.421 Q57.1312 261.528 58.9367 265.093 Q60.7654 268.634 64.3765 268.634 Q68.0107 268.634 69.8163 265.093 Q71.645 261.528 71.645 254.421 Q71.645 247.292 69.8163 243.75 Q68.0107 240.185 64.3765 240.185 M64.3765 236.482 Q70.1867 236.482 73.2422 241.088 Q76.3209 245.671 76.3209 254.421 Q76.3209 263.148 73.2422 267.755 Q70.1867 272.338 64.3765 272.338 Q58.5664 272.338 55.4877 267.755 Q52.4321 263.148 52.4321 254.421 Q52.4321 245.671 55.4877 241.088 Q58.5664 236.482 64.3765 236.482 Z" fill="#000000" fill-rule="nonzero" fill-opacity="1" /><path clip-path="url(#clip720)" d="M84.5384 265.787 L89.4227 265.787 L89.4227 271.667 L84.5384 271.667 L84.5384 265.787 Z" fill="#000000" fill-rule="nonzero" fill-opacity="1" /><path clip-path="url(#clip720)" d="M112.455 241.181 L100.649 259.63 L112.455 259.63 L112.455 241.181 M111.228 237.107 L117.108 237.107 L117.108 259.63 L122.038 259.63 L122.038 263.518 L117.108 263.518 L117.108 271.667 L112.455 271.667 L112.455 263.518 L96.8532 263.518 L96.8532 259.005 L111.228 237.107 Z" fill="#000000" fill-rule="nonzero" fill-opacity="1" /><path clip-path="url(#clip720)" d="M139.77 240.185 Q136.159 240.185 134.33 243.75 Q132.524 247.292 132.524 254.421 Q132.524 261.528 134.33 265.093 Q136.159 268.634 139.77 268.634 Q143.404 268.634 145.209 265.093 Q147.038 261.528 147.038 254.421 Q147.038 247.292 145.209 243.75 Q143.404 240.185 139.77 240.185 M139.77 236.482 Q145.58 236.482 148.635 241.088 Q151.714 245.671 151.714 254.421 Q151.714 263.148 148.635 267.755 Q145.58 272.338 139.77 272.338 Q133.959 272.338 130.881 267.755 Q127.825 263.148 127.825 254.421 Q127.825 245.671 130.881 241.088 Q133.959 236.482 139.77 236.482 Z" fill="#000000" fill-rule="nonzero" fill-opacity="1" /><polyline clip-path="url(#clip722)" style="stroke:#009af9; stroke-linecap:round; stroke-linejoin:round; stroke-width:4; stroke-opacity:1; fill:none" points="183.394,493.193 186.456,498.907 189.518,504.621 192.581,510.228 195.643,515.859 223.957,566.805 252.271,615.726 280.585,662.626 308.9,707.507 325.915,733.508 342.931,758.782 359.947,783.33 376.962,807.154 405.735,845.793 434.508,882.37 465.764,919.775 497.02,954.768 525.834,984.901 554.649,1013 585.542,1040.89 616.435,1066.47 634.331,1080.25 652.227,1093.26 670.123,1105.5 688.019,1116.99 719.827,1135.54 751.634,1151.74 779.527,1164.01 807.42,1174.5 837.83,1183.92 868.24,1191.25 898.832,1196.55 929.423,1199.78 963.245,1200.97 997.068,1199.71 1029.25,1196.24 1061.43,1190.6 1094.89,1182.45 1128.35,1172.02 1156.52,1161.48 1184.69,1149.36 1219.07,1132.46 1253.46,1113.26 1284.97,1093.68 1316.47,1072.25 1345.56,1050.82 1374.66,1027.84 1404.13,1003 1433.6,976.623 1466.63,945.253 1499.66,912.003 1529.59,880.274 1559.52,847.049 1593.79,807.2 1628.06,765.452 1659.79,725.133 1691.52,683.24 1722.8,640.423 1754.08,596.126 1784.45,551.723 1814.82,505.969 1845.96,457.686 1877.09,408.027 1911.21,352.069 1945.32,294.516 1994.87,208.13 2044.42,118.525 2054.59,99.752 2064.76,80.8479 "/>
<path clip-path="url(#clip720)" d="M246.106 190.502 L578.269 190.502 L578.269 86.8219 L246.106 86.8219  Z" fill="#ffffff" fill-rule="evenodd" fill-opacity="1"/>
<polyline clip-path="url(#clip720)" style="stroke:#000000; stroke-linecap:round; stroke-linejoin:round; stroke-width:4; stroke-opacity:1; fill:none" points="246.106,190.502 578.269,190.502 578.269,86.8219 246.106,86.8219 246.106,190.502 "/>
<polyline clip-path="url(#clip720)" style="stroke:#009af9; stroke-linecap:round; stroke-linejoin:round; stroke-width:4; stroke-opacity:1; fill:none" points="267.01,138.662 392.434,138.662 "/>
<path clip-path="url(#clip720)" d="M427.181 158.349 Q425.375 162.979 423.662 164.391 Q421.949 165.803 419.079 165.803 L415.676 165.803 L415.676 162.238 L418.176 162.238 Q419.935 162.238 420.908 161.405 Q421.88 160.572 423.06 157.47 L423.824 155.525 L413.338 130.016 L417.852 130.016 L425.954 150.294 L434.056 130.016 L438.57 130.016 L427.181 158.349 Z" fill="#000000" fill-rule="nonzero" fill-opacity="1" /><path clip-path="url(#clip720)" d="M445.005 134.414 L474.68 134.414 L474.68 138.303 L445.005 138.303 L445.005 134.414 M445.005 143.859 L474.68 143.859 L474.68 147.794 L445.005 147.794 L445.005 143.859 Z" fill="#000000" fill-rule="nonzero" fill-opacity="1" /><path clip-path="url(#clip720)" d="M497.296 119.924 L497.296 123.465 L493.222 123.465 Q490.93 123.465 490.028 124.391 Q489.148 125.317 489.148 127.724 L489.148 130.016 L496.162 130.016 L496.162 133.326 L489.148 133.326 L489.148 155.942 L484.866 155.942 L484.866 133.326 L480.792 133.326 L480.792 130.016 L484.866 130.016 L484.866 128.211 Q484.866 123.882 486.88 121.914 Q488.893 119.924 493.268 119.924 L497.296 119.924 Z" fill="#000000" fill-rule="nonzero" fill-opacity="1" /><path clip-path="url(#clip720)" d="M511.092 119.97 Q507.991 125.294 506.486 130.502 Q504.981 135.711 504.981 141.058 Q504.981 146.405 506.486 151.66 Q508.014 156.891 511.092 162.192 L507.389 162.192 Q503.916 156.752 502.18 151.497 Q500.467 146.243 500.467 141.058 Q500.467 135.896 502.18 130.664 Q503.893 125.433 507.389 119.97 L511.092 119.97 Z" fill="#000000" fill-rule="nonzero" fill-opacity="1" /><path clip-path="url(#clip720)" d="M540.907 130.016 L531.532 142.632 L541.393 155.942 L536.37 155.942 L528.824 145.757 L521.277 155.942 L516.254 155.942 L526.324 142.377 L517.111 130.016 L522.134 130.016 L529.009 139.252 L535.884 130.016 L540.907 130.016 Z" fill="#000000" fill-rule="nonzero" fill-opacity="1" /><path clip-path="url(#clip720)" d="M546.74 119.97 L550.444 119.97 Q553.916 125.433 555.629 130.664 Q557.365 135.896 557.365 141.058 Q557.365 146.243 555.629 151.497 Q553.916 156.752 550.444 162.192 L546.74 162.192 Q549.819 156.891 551.324 151.66 Q552.851 146.405 552.851 141.058 Q552.851 135.711 551.324 130.502 Q549.819 125.294 546.74 119.97 Z" fill="#000000" fill-rule="nonzero" fill-opacity="1" /></svg>
