<?xml version="1.0" encoding="utf-8"?>
<svg xmlns="http://www.w3.org/2000/svg" xmlns:xlink="http://www.w3.org/1999/xlink" width="528" height="336" viewBox="0 0 2112 1344">
<defs>
  <clipPath id="clip810">
    <rect x="0" y="0" width="2112" height="1344"/>
  </clipPath>
</defs>
<path clip-path="url(#clip810)" d="M0 1344 L2112 1344 L2112 2.13163e-14 L0 2.13163e-14  Z" fill="#ffffff" fill-rule="evenodd" fill-opacity="1"/>
<defs>
  <clipPath id="clip811">
    <rect x="422" y="0" width="1479" height="1344"/>
  </clipPath>
</defs>
<path clip-path="url(#clip810)" d="M137.816 1234.58 L2064.76 1234.58 L2064.76 47.2441 L137.816 47.2441  Z" fill="#ffffff" fill-rule="evenodd" fill-opacity="1"/>
<defs>
  <clipPath id="clip812">
    <rect x="137" y="47" width="1928" height="1188"/>
  </clipPath>
</defs>
<polyline clip-path="url(#clip812)" style="stroke:#000000; stroke-linecap:round; stroke-linejoin:round; stroke-width:2; stroke-opacity:0.1; fill:none" points="137.816,1234.58 137.816,47.2441 "/>
<polyline clip-path="url(#clip812)" style="stroke:#000000; stroke-linecap:round; stroke-linejoin:round; stroke-width:2; stroke-opacity:0.1; fill:none" points="619.551,1234.58 619.551,47.2441 "/>
<polyline clip-path="url(#clip812)" style="stroke:#000000; stroke-linecap:round; stroke-linejoin:round; stroke-width:2; stroke-opacity:0.1; fill:none" points="1101.29,1234.58 1101.29,47.2441 "/>
<polyline clip-path="url(#clip812)" style="stroke:#000000; stroke-linecap:round; stroke-linejoin:round; stroke-width:2; stroke-opacity:0.1; fill:none" points="1583.02,1234.58 1583.02,47.2441 "/>
<polyline clip-path="url(#clip812)" style="stroke:#000000; stroke-linecap:round; stroke-linejoin:round; stroke-width:2; stroke-opacity:0.1; fill:none" points="2064.76,1234.58 2064.76,47.2441 "/>
<polyline clip-path="url(#clip812)" style="stroke:#000000; stroke-linecap:round; stroke-linejoin:round; stroke-width:2; stroke-opacity:0.1; fill:none" points="137.816,1154.3 2064.76,1154.3 "/>
<polyline clip-path="url(#clip812)" style="stroke:#000000; stroke-linecap:round; stroke-linejoin:round; stroke-width:2; stroke-opacity:0.1; fill:none" points="137.816,920.943 2064.76,920.943 "/>
<polyline clip-path="url(#clip812)" style="stroke:#000000; stroke-linecap:round; stroke-linejoin:round; stroke-width:2; stroke-opacity:0.1; fill:none" points="137.816,687.583 2064.76,687.583 "/>
<polyline clip-path="url(#clip812)" style="stroke:#000000; stroke-linecap:round; stroke-linejoin:round; stroke-width:2; stroke-opacity:0.1; fill:none" points="137.816,454.224 2064.76,454.224 "/>
<polyline clip-path="url(#clip812)" style="stroke:#000000; stroke-linecap:round; stroke-linejoin:round; stroke-width:2; stroke-opacity:0.1; fill:none" points="137.816,220.864 2064.76,220.864 "/>
<polyline clip-path="url(#clip810)" style="stroke:#000000; stroke-linecap:round; stroke-linejoin:round; stroke-width:4; stroke-opacity:1; fill:none" points="137.816,1234.58 2064.76,1234.58 "/>
<polyline clip-path="url(#clip810)" style="stroke:#000000; stroke-linecap:round; stroke-linejoin:round; stroke-width:4; stroke-opacity:1; fill:none" points="137.816,1234.58 137.816,1215.68 "/>
<polyline clip-path="url(#clip810)" style="stroke:#000000; stroke-linecap:round; stroke-linejoin:round; stroke-width:4; stroke-opacity:1; fill:none" points="619.551,1234.58 619.551,1215.68 "/>
<polyline clip-path="url(#clip810)" style="stroke:#000000; stroke-linecap:round; stroke-linejoin:round; stroke-width:4; stroke-opacity:1; fill:none" points="1101.29,1234.58 1101.29,1215.68 "/>
<polyline clip-path="url(#clip810)" style="stroke:#000000; stroke-linecap:round; stroke-linejoin:round; stroke-width:4; stroke-opacity:1; fill:none" points="1583.02,1234.58 1583.02,1215.68 "/>
<polyline clip-path="url(#clip810)" style="stroke:#000000; stroke-linecap:round; stroke-linejoin:round; stroke-width:4; stroke-opacity:1; fill:none" points="2064.76,1234.58 2064.76,1215.68 "/>
<path clip-path="url(#clip810)" d="M137.816 1263.19 Q134.204 1263.19 132.376 1266.76 Q130.57 1270.3 130.57 1277.43 Q130.57 1284.54 132.376 1288.1 Q134.204 1291.64 137.816 1291.64 Q141.45 1291.64 143.255 1288.1 Q145.084 1284.54 145.084 1277.43 Q145.084 1270.3 143.255 1266.76 Q141.45 1263.19 137.816 1263.19 M137.816 1259.49 Q143.626 1259.49 146.681 1264.1 Q149.76 1268.68 149.76 1277.43 Q149.76 1286.16 146.681 1290.76 Q143.626 1295.35 137.816 1295.35 Q132.005 1295.35 128.927 1290.76 Q125.871 1286.16 125.871 1277.43 Q125.871 1268.68 128.927 1264.1 Q132.005 1259.49 137.816 1259.49 Z" fill="#000000" fill-rule="nonzero" fill-opacity="1" /><path clip-path="url(#clip810)" d="M609.933 1290.74 L617.571 1290.74 L617.571 1264.37 L609.261 1266.04 L609.261 1261.78 L617.525 1260.11 L622.201 1260.11 L622.201 1290.74 L629.84 1290.74 L629.84 1294.67 L609.933 1294.67 L609.933 1290.74 Z" fill="#000000" fill-rule="nonzero" fill-opacity="1" /><path clip-path="url(#clip810)" d="M1095.94 1290.74 L1112.26 1290.74 L1112.26 1294.67 L1090.31 1294.67 L1090.31 1290.74 Q1092.98 1287.99 1097.56 1283.36 Q1102.17 1278.7 1103.35 1277.36 Q1105.59 1274.84 1106.47 1273.1 Q1107.37 1271.34 1107.37 1269.65 Q1107.37 1266.9 1105.43 1265.16 Q1103.51 1263.42 1100.41 1263.42 Q1098.21 1263.42 1095.75 1264.19 Q1093.32 1264.95 1090.55 1266.5 L1090.55 1261.78 Q1093.37 1260.65 1095.82 1260.07 Q1098.28 1259.49 1100.31 1259.49 Q1105.68 1259.49 1108.88 1262.17 Q1112.07 1264.86 1112.07 1269.35 Q1112.07 1271.48 1111.26 1273.4 Q1110.48 1275.3 1108.37 1277.89 Q1107.79 1278.56 1104.69 1281.78 Q1101.59 1284.98 1095.94 1290.74 Z" fill="#000000" fill-rule="nonzero" fill-opacity="1" /><path clip-path="url(#clip810)" d="M1587.27 1276.04 Q1590.62 1276.76 1592.5 1279.03 Q1594.4 1281.3 1594.4 1284.63 Q1594.4 1289.74 1590.88 1292.55 Q1587.36 1295.35 1580.88 1295.35 Q1578.7 1295.35 1576.39 1294.91 Q1574.1 1294.49 1571.64 1293.63 L1571.64 1289.12 Q1573.59 1290.25 1575.9 1290.83 Q1578.22 1291.41 1580.74 1291.41 Q1585.14 1291.41 1587.43 1289.67 Q1589.75 1287.94 1589.75 1284.63 Q1589.75 1281.57 1587.59 1279.86 Q1585.46 1278.12 1581.64 1278.12 L1577.62 1278.12 L1577.62 1274.28 L1581.83 1274.28 Q1585.28 1274.28 1587.11 1272.92 Q1588.94 1271.53 1588.94 1268.93 Q1588.94 1266.27 1587.04 1264.86 Q1585.16 1263.42 1581.64 1263.42 Q1579.72 1263.42 1577.52 1263.84 Q1575.32 1264.26 1572.69 1265.14 L1572.69 1260.97 Q1575.35 1260.23 1577.66 1259.86 Q1580 1259.49 1582.06 1259.49 Q1587.38 1259.49 1590.49 1261.92 Q1593.59 1264.33 1593.59 1268.45 Q1593.59 1271.32 1591.94 1273.31 Q1590.3 1275.28 1587.27 1276.04 Z" fill="#000000" fill-rule="nonzero" fill-opacity="1" /><path clip-path="url(#clip810)" d="M2067.77 1264.19 L2055.96 1282.64 L2067.77 1282.64 L2067.77 1264.19 M2066.54 1260.11 L2072.42 1260.11 L2072.42 1282.64 L2077.35 1282.64 L2077.35 1286.53 L2072.42 1286.53 L2072.42 1294.67 L2067.77 1294.67 L2067.77 1286.53 L2052.16 1286.53 L2052.16 1282.01 L2066.54 1260.11 Z" fill="#000000" fill-rule="nonzero" fill-opacity="1" /><polyline clip-path="url(#clip810)" style="stroke:#000000; stroke-linecap:round; stroke-linejoin:round; stroke-width:4; stroke-opacity:1; fill:none" points="137.816,1234.58 137.816,47.2441 "/>
<polyline clip-path="url(#clip810)" style="stroke:#000000; stroke-linecap:round; stroke-linejoin:round; stroke-width:4; stroke-opacity:1; fill:none" points="137.816,1154.3 156.713,1154.3 "/>
<polyline clip-path="url(#clip810)" style="stroke:#000000; stroke-linecap:round; stroke-linejoin:round; stroke-width:4; stroke-opacity:1; fill:none" points="137.816,920.943 156.713,920.943 "/>
<polyline clip-path="url(#clip810)" style="stroke:#000000; stroke-linecap:round; stroke-linejoin:round; stroke-width:4; stroke-opacity:1; fill:none" points="137.816,687.583 156.713,687.583 "/>
<polyline clip-path="url(#clip810)" style="stroke:#000000; stroke-linecap:round; stroke-linejoin:round; stroke-width:4; stroke-opacity:1; fill:none" points="137.816,454.224 156.713,454.224 "/>
<polyline clip-path="url(#clip810)" style="stroke:#000000; stroke-linecap:round; stroke-linejoin:round; stroke-width:4; stroke-opacity:1; fill:none" points="137.816,220.864 156.713,220.864 "/>
<path clip-path="url(#clip810)" d="M94.1912 1140.1 Q90.5801 1140.1 88.7514 1143.67 Q86.9458 1147.21 86.9458 1154.34 Q86.9458 1161.44 88.7514 1165.01 Q90.5801 1168.55 94.1912 1168.55 Q97.8254 1168.55 99.6309 1165.01 Q101.46 1161.44 101.46 1154.34 Q101.46 1147.21 99.6309 1143.67 Q97.8254 1140.1 94.1912 1140.1 M94.1912 1136.4 Q100.001 1136.4 103.057 1141 Q106.136 1145.59 106.136 1154.34 Q106.136 1163.06 103.057 1167.67 Q100.001 1172.25 94.1912 1172.25 Q88.381 1172.25 85.3023 1167.67 Q82.2468 1163.06 82.2468 1154.34 Q82.2468 1145.59 85.3023 1141 Q88.381 1136.4 94.1912 1136.4 Z" fill="#000000" fill-rule="nonzero" fill-opacity="1" /><path clip-path="url(#clip810)" d="M85.2329 903.663 L103.589 903.663 L103.589 907.598 L89.5153 907.598 L89.5153 916.071 Q90.5338 915.723 91.5523 915.561 Q92.5708 915.376 93.5893 915.376 Q99.3763 915.376 102.756 918.547 Q106.136 921.719 106.136 927.135 Q106.136 932.714 102.663 935.816 Q99.1911 938.894 92.8717 938.894 Q90.6958 938.894 88.4273 938.524 Q86.1819 938.154 83.7746 937.413 L83.7746 932.714 Q85.8579 933.848 88.0801 934.404 Q90.3023 934.959 92.7791 934.959 Q96.7837 934.959 99.1217 932.853 Q101.46 930.746 101.46 927.135 Q101.46 923.524 99.1217 921.418 Q96.7837 919.311 92.7791 919.311 Q90.9041 919.311 89.0292 919.728 Q87.1773 920.145 85.2329 921.024 L85.2329 903.663 Z" fill="#000000" fill-rule="nonzero" fill-opacity="1" /><path clip-path="url(#clip810)" d="M54.8395 700.928 L62.4784 700.928 L62.4784 674.563 L54.1682 676.229 L54.1682 671.97 L62.4321 670.303 L67.108 670.303 L67.108 700.928 L74.7468 700.928 L74.7468 704.863 L54.8395 704.863 L54.8395 700.928 Z" fill="#000000" fill-rule="nonzero" fill-opacity="1" /><path clip-path="url(#clip810)" d="M94.1912 673.382 Q90.5801 673.382 88.7514 676.947 Q86.9458 680.489 86.9458 687.618 Q86.9458 694.725 88.7514 698.289 Q90.5801 701.831 94.1912 701.831 Q97.8254 701.831 99.6309 698.289 Q101.46 694.725 101.46 687.618 Q101.46 680.489 99.6309 676.947 Q97.8254 673.382 94.1912 673.382 M94.1912 669.678 Q100.001 669.678 103.057 674.285 Q106.136 678.868 106.136 687.618 Q106.136 696.345 103.057 700.951 Q100.001 705.535 94.1912 705.535 Q88.381 705.535 85.3023 700.951 Q82.2468 696.345 82.2468 687.618 Q82.2468 678.868 85.3023 674.285 Q88.381 669.678 94.1912 669.678 Z" fill="#000000" fill-rule="nonzero" fill-opacity="1" /><path clip-path="url(#clip810)" d="M55.8349 467.568 L63.4737 467.568 L63.4737 441.203 L55.1636 442.869 L55.1636 438.61 L63.4274 436.944 L68.1033 436.944 L68.1033 467.568 L75.7422 467.568 L75.7422 471.504 L55.8349 471.504 L55.8349 467.568 Z" fill="#000000" fill-rule="nonzero" fill-opacity="1" /><path clip-path="url(#clip810)" d="M85.2329 436.944 L103.589 436.944 L103.589 440.879 L89.5153 440.879 L89.5153 449.351 Q90.5338 449.004 91.5523 448.842 Q92.5708 448.656 93.5893 448.656 Q99.3763 448.656 102.756 451.828 Q106.136 454.999 106.136 460.416 Q106.136 465.994 102.663 469.096 Q99.1911 472.175 92.8717 472.175 Q90.6958 472.175 88.4273 471.805 Q86.1819 471.434 83.7746 470.693 L83.7746 465.994 Q85.8579 467.129 88.0801 467.684 Q90.3023 468.24 92.7791 468.24 Q96.7837 468.24 99.1217 466.133 Q101.46 464.027 101.46 460.416 Q101.46 456.805 99.1217 454.698 Q96.7837 452.592 92.7791 452.592 Q90.9041 452.592 89.0292 453.008 Q87.1773 453.425 85.2329 454.305 L85.2329 436.944 Z" fill="#000000" fill-rule="nonzero" fill-opacity="1" /><path clip-path="url(#clip810)" d="M58.0571 234.209 L74.3765 234.209 L74.3765 238.144 L52.4321 238.144 L52.4321 234.209 Q55.0941 231.454 59.6775 226.824 Q64.2839 222.172 65.4645 220.829 Q67.7098 218.306 68.5894 216.57 Q69.4922 214.811 69.4922 213.121 Q69.4922 210.366 67.5478 208.63 Q65.6265 206.894 62.5247 206.894 Q60.3256 206.894 57.8719 207.658 Q55.4414 208.422 52.6636 209.973 L52.6636 205.25 Q55.4877 204.116 57.9414 203.537 Q60.395 202.959 62.4321 202.959 Q67.8024 202.959 70.9968 205.644 Q74.1913 208.329 74.1913 212.82 Q74.1913 214.949 73.3811 216.871 Q72.5941 218.769 70.4876 221.361 Q69.9089 222.033 66.807 225.25 Q63.7052 228.445 58.0571 234.209 Z" fill="#000000" fill-rule="nonzero" fill-opacity="1" /><path clip-path="url(#clip810)" d="M94.1912 206.662 Q90.5801 206.662 88.7514 210.227 Q86.9458 213.769 86.9458 220.899 Q86.9458 228.005 88.7514 231.57 Q90.5801 235.111 94.1912 235.111 Q97.8254 235.111 99.6309 231.57 Q101.46 228.005 101.46 220.899 Q101.46 213.769 99.6309 210.227 Q97.8254 206.662 94.1912 206.662 M94.1912 202.959 Q100.001 202.959 103.057 207.565 Q106.136 212.149 106.136 220.899 Q106.136 229.625 103.057 234.232 Q100.001 238.815 94.1912 238.815 Q88.381 238.815 85.3023 234.232 Q82.2468 229.625 82.2468 220.899 Q82.2468 212.149 85.3023 207.565 Q88.381 202.959 94.1912 202.959 Z" fill="#000000" fill-rule="nonzero" fill-opacity="1" /><polyline clip-path="url(#clip812)" style="stroke:#009af9; stroke-linecap:round; stroke-linejoin:round; stroke-width:4; stroke-opacity:1; fill:none" points="137.816,80.8479 140.952,86.3114 144.088,91.763 147.225,97.2024 150.361,102.63 179.361,152.214 208.361,200.658 237.361,247.881 266.362,293.808 301.217,347.194 336.073,398.496 365.543,440.171 395.013,480.23 427.026,521.861 459.039,561.477 488.552,596.174 518.065,629.091 549.706,662.378 581.347,693.57 618.006,727.072 654.666,757.738 687.244,782.615 719.822,805.27 748.391,823.326 776.959,839.712 808.106,855.704 839.253,869.783 870.586,882.064 901.918,892.513 936.56,902.012 971.201,909.448 1004.16,914.707 1037.12,918.299 1071.39,920.388 1105.67,920.932 1134.52,920.3 1163.37,918.773 1233.81,911.905 1298.34,902.797 1357.94,893.198 1418.31,883.54 1485.97,874.425 1547.28,869.344 1582.38,868.438 1617.48,869.384 1649.98,872.201 1682.48,877.161 1714.51,884.422 1746.55,894.316 1777.66,906.711 1808.77,922.124 1824.71,931.284 1840.66,941.347 1856.6,952.351 1872.55,964.336 1890.02,978.639 1907.49,994.218 1924.96,1011.13 1942.42,1029.42 1955.11,1043.6 1967.8,1058.57 1980.49,1074.34 1993.18,1090.93 2005.87,1108.36 2018.55,1126.66 2031.24,1145.85 2043.93,1165.95 2049.14,1174.47 2054.34,1183.14 2059.55,1191.98 2064.76,1200.97 "/>
<polyline clip-path="url(#clip812)" style="stroke:#e26f46; stroke-linecap:round; stroke-linejoin:round; stroke-width:4; stroke-opacity:1; fill:none" points="137.816,1154.3 150.361,1154.3 266.362,1154.3 336.073,1154.3 395.013,1154.3 459.039,1154.3 518.065,1154.3 581.347,1154.3 654.666,1154.3 719.822,1154.3 776.959,1154.3 839.253,1154.3 901.918,1154.3 971.201,1154.3 1037.12,1154.3 1105.67,1154.3 1163.37,1154.3 1233.81,1154.3 1298.34,1154.3 1357.94,1154.3 1418.31,1154.3 1485.97,1154.3 1547.28,1154.3 1617.48,1154.3 1682.48,1154.3 1746.55,1154.3 1808.77,1154.3 1872.55,1154.3 1942.42,1154.3 2043.93,1154.3 2064.76,1154.3 "/>
<polyline clip-path="url(#clip812)" style="stroke:#3da44d; stroke-linecap:round; stroke-linejoin:round; stroke-width:4; stroke-opacity:1; fill:none" points="137.816,868.437 150.361,868.437 266.362,868.437 336.073,868.437 395.013,868.437 459.039,868.437 518.065,868.437 581.347,868.437 654.666,868.437 719.822,868.437 776.959,868.437 839.253,868.437 901.918,868.437 971.201,868.437 1037.12,868.437 1105.67,868.437 1163.37,868.437 1233.81,868.437 1298.34,868.437 1357.94,868.437 1418.31,868.437 1485.97,868.437 1547.28,868.437 1617.48,868.437 1682.48,868.437 1746.55,868.437 1808.77,868.437 1872.55,868.437 1942.42,868.437 2043.93,868.437 2064.76,868.437 "/>
<path clip-path="url(#clip810)" d="M1416.44 294.182 L2000.52 294.182 L2000.52 86.8219 L1416.44 86.8219  Z" fill="#ffffff" fill-rule="evenodd" fill-opacity="1"/>
<polyline clip-path="url(#clip810)" style="stroke:#000000; stroke-linecap:round; stroke-linejoin:round; stroke-width:4; stroke-opacity:1; fill:none" points="1416.44,294.182 2000.52,294.182 2000.52,86.8219 1416.44,86.8219 1416.44,294.182 "/>
<polyline clip-path="url(#clip810)" style="stroke:#009af9; stroke-linecap:round; stroke-linejoin:round; stroke-width:4; stroke-opacity:1; fill:none" points="1437.85,138.662 1566.32,138.662 "/>
<path clip-path="url(#clip810)" d="M1601.57 158.349 Q1599.76 162.979 1598.05 164.391 Q1596.34 165.803 1593.47 165.803 L1590.07 165.803 L1590.07 162.238 L1592.57 162.238 Q1594.32 162.238 1595.3 161.405 Q1596.27 160.572 1597.45 157.47 L1598.21 155.525 L1587.73 130.016 L1592.24 130.016 L1600.34 150.294 L1608.44 130.016 L1612.96 130.016 L1601.57 158.349 Z" fill="#000000" fill-rule="nonzero" fill-opacity="1" /><path clip-path="url(#clip810)" d="M1619.39 134.414 L1649.07 134.414 L1649.07 138.303 L1619.39 138.303 L1619.39 134.414 M1619.39 143.859 L1649.07 143.859 L1649.07 147.794 L1619.39 147.794 L1619.39 143.859 Z" fill="#000000" fill-rule="nonzero" fill-opacity="1" /><path clip-path="url(#clip810)" d="M1675.62 142.678 Q1675.62 138.048 1673.7 135.502 Q1671.8 132.956 1668.35 132.956 Q1664.93 132.956 1663 135.502 Q1661.11 138.048 1661.11 142.678 Q1661.11 147.285 1663 149.831 Q1664.93 152.377 1668.35 152.377 Q1671.8 152.377 1673.7 149.831 Q1675.62 147.285 1675.62 142.678 M1679.88 152.724 Q1679.88 159.345 1676.94 162.562 Q1674 165.803 1667.94 165.803 Q1665.69 165.803 1663.7 165.456 Q1661.71 165.132 1659.83 164.437 L1659.83 160.294 Q1661.71 161.312 1663.54 161.798 Q1665.37 162.284 1667.26 162.284 Q1671.45 162.284 1673.54 160.085 Q1675.62 157.909 1675.62 153.488 L1675.62 151.382 Q1674.3 153.673 1672.24 154.808 Q1670.18 155.942 1667.31 155.942 Q1662.54 155.942 1659.63 152.308 Q1656.71 148.673 1656.71 142.678 Q1656.71 136.66 1659.63 133.025 Q1662.54 129.391 1667.31 129.391 Q1670.18 129.391 1672.24 130.525 Q1674.3 131.66 1675.62 133.951 L1675.62 130.016 L1679.88 130.016 L1679.88 152.724 Z" fill="#000000" fill-rule="nonzero" fill-opacity="1" /><path clip-path="url(#clip810)" d="M1698.88 119.97 Q1695.78 125.294 1694.28 130.502 Q1692.77 135.711 1692.77 141.058 Q1692.77 146.405 1694.28 151.66 Q1695.81 156.891 1698.88 162.192 L1695.18 162.192 Q1691.71 156.752 1689.97 151.497 Q1688.26 146.243 1688.26 141.058 Q1688.26 135.896 1689.97 130.664 Q1691.69 125.433 1695.18 119.97 L1698.88 119.97 Z" fill="#000000" fill-rule="nonzero" fill-opacity="1" /><path clip-path="url(#clip810)" d="M1728.7 130.016 L1719.32 142.632 L1729.18 155.942 L1724.16 155.942 L1716.62 145.757 L1709.07 155.942 L1704.05 155.942 L1714.12 142.377 L1704.9 130.016 L1709.93 130.016 L1716.8 139.252 L1723.68 130.016 L1728.7 130.016 Z" fill="#000000" fill-rule="nonzero" fill-opacity="1" /><path clip-path="url(#clip810)" d="M1734.53 119.97 L1738.24 119.97 Q1741.71 125.433 1743.42 130.664 Q1745.16 135.896 1745.16 141.058 Q1745.16 146.243 1743.42 151.497 Q1741.71 156.752 1738.24 162.192 L1734.53 162.192 Q1737.61 156.891 1739.12 151.66 Q1740.64 146.405 1740.64 141.058 Q1740.64 135.711 1739.12 130.502 Q1737.61 125.294 1734.53 119.97 Z" fill="#000000" fill-rule="nonzero" fill-opacity="1" /><polyline clip-path="url(#clip810)" style="stroke:#e26f46; stroke-linecap:round; stroke-linejoin:round; stroke-width:4; stroke-opacity:1; fill:none" points="1437.85,190.502 1566.32,190.502 "/>
<path clip-path="url(#clip810)" d="M1601.57 210.189 Q1599.76 214.819 1598.05 216.231 Q1596.34 217.643 1593.47 217.643 L1590.07 217.643 L1590.07 214.078 L1592.57 214.078 Q1594.32 214.078 1595.3 213.245 Q1596.27 212.412 1597.45 209.31 L1598.21 207.365 L1587.73 181.856 L1592.24 181.856 L1600.34 202.134 L1608.44 181.856 L1612.96 181.856 L1601.57 210.189 Z" fill="#000000" fill-rule="nonzero" fill-opacity="1" /><path clip-path="url(#clip810)" d="M1619.39 186.254 L1649.07 186.254 L1649.07 190.143 L1619.39 190.143 L1619.39 186.254 M1619.39 195.699 L1649.07 195.699 L1649.07 199.634 L1619.39 199.634 L1619.39 195.699 Z" fill="#000000" fill-rule="nonzero" fill-opacity="1" /><path clip-path="url(#clip810)" d="M1669.16 176.301 Q1665.55 176.301 1663.72 179.865 Q1661.92 183.407 1661.92 190.537 Q1661.92 197.643 1663.72 201.208 Q1665.55 204.75 1669.16 204.75 Q1672.8 204.75 1674.6 201.208 Q1676.43 197.643 1676.43 190.537 Q1676.43 183.407 1674.6 179.865 Q1672.8 176.301 1669.16 176.301 M1669.16 172.597 Q1674.97 172.597 1678.03 177.203 Q1681.11 181.787 1681.11 190.537 Q1681.11 199.263 1678.03 203.87 Q1674.97 208.453 1669.16 208.453 Q1663.35 208.453 1660.27 203.87 Q1657.22 199.263 1657.22 190.537 Q1657.22 181.787 1660.27 177.203 Q1663.35 172.597 1669.16 172.597 Z" fill="#000000" fill-rule="nonzero" fill-opacity="1" /><polyline clip-path="url(#clip810)" style="stroke:#3da44d; stroke-linecap:round; stroke-linejoin:round; stroke-width:4; stroke-opacity:1; fill:none" points="1437.85,242.342 1566.32,242.342 "/>
<path clip-path="url(#clip810)" d="M1601.57 262.029 Q1599.76 266.659 1598.05 268.071 Q1596.34 269.483 1593.47 269.483 L1590.07 269.483 L1590.07 265.918 L1592.57 265.918 Q1594.32 265.918 1595.3 265.085 Q1596.27 264.252 1597.45 261.15 L1598.21 259.205 L1587.73 233.696 L1592.24 233.696 L1600.34 253.974 L1608.44 233.696 L1612.96 233.696 L1601.57 262.029 Z" fill="#000000" fill-rule="nonzero" fill-opacity="1" /><path clip-path="url(#clip810)" d="M1619.39 238.094 L1649.07 238.094 L1649.07 241.983 L1619.39 241.983 L1619.39 238.094 M1619.39 247.539 L1649.07 247.539 L1649.07 251.474 L1619.39 251.474 L1619.39 247.539 Z" fill="#000000" fill-rule="nonzero" fill-opacity="1" /><path clip-path="url(#clip810)" d="M1671.69 223.604 L1671.69 227.145 L1667.61 227.145 Q1665.32 227.145 1664.42 228.071 Q1663.54 228.997 1663.54 231.404 L1663.54 233.696 L1670.55 233.696 L1670.55 237.006 L1663.54 237.006 L1663.54 259.622 L1659.25 259.622 L1659.25 237.006 L1655.18 237.006 L1655.18 233.696 L1659.25 233.696 L1659.25 231.891 Q1659.25 227.562 1661.27 225.594 Q1663.28 223.604 1667.66 223.604 L1671.69 223.604 Z" fill="#000000" fill-rule="nonzero" fill-opacity="1" /><path clip-path="url(#clip810)" d="M1685.48 223.65 Q1682.38 228.974 1680.87 234.182 Q1679.37 239.391 1679.37 244.738 Q1679.37 250.085 1680.87 255.34 Q1682.4 260.571 1685.48 265.872 L1681.78 265.872 Q1678.31 260.432 1676.57 255.177 Q1674.86 249.923 1674.86 244.738 Q1674.86 239.576 1676.57 234.344 Q1678.28 229.113 1681.78 223.65 L1685.48 223.65 Z" fill="#000000" fill-rule="nonzero" fill-opacity="1" /><path clip-path="url(#clip810)" d="M1708.51 240.988 Q1711.87 241.705 1713.75 243.974 Q1715.64 246.242 1715.64 249.576 Q1715.64 254.691 1712.12 257.492 Q1708.61 260.293 1702.12 260.293 Q1699.95 260.293 1697.63 259.853 Q1695.34 259.437 1692.89 258.58 L1692.89 254.066 Q1694.83 255.201 1697.15 255.779 Q1699.46 256.358 1701.99 256.358 Q1706.38 256.358 1708.68 254.622 Q1710.99 252.886 1710.99 249.576 Q1710.99 246.52 1708.84 244.807 Q1706.71 243.071 1702.89 243.071 L1698.86 243.071 L1698.86 239.229 L1703.07 239.229 Q1706.52 239.229 1708.35 237.863 Q1710.18 236.474 1710.18 233.881 Q1710.18 231.219 1708.28 229.807 Q1706.41 228.372 1702.89 228.372 Q1700.97 228.372 1698.77 228.789 Q1696.57 229.205 1693.93 230.085 L1693.93 225.918 Q1696.59 225.178 1698.91 224.807 Q1701.25 224.437 1703.31 224.437 Q1708.63 224.437 1711.73 226.867 Q1714.83 229.275 1714.83 233.395 Q1714.83 236.266 1713.19 238.256 Q1711.55 240.224 1708.51 240.988 Z" fill="#000000" fill-rule="nonzero" fill-opacity="1" /><path clip-path="url(#clip810)" d="M1723.24 223.65 L1726.94 223.65 Q1730.41 229.113 1732.12 234.344 Q1733.86 239.576 1733.86 244.738 Q1733.86 249.923 1732.12 255.177 Q1730.41 260.432 1726.94 265.872 L1723.24 265.872 Q1726.31 260.571 1727.82 255.34 Q1729.35 250.085 1729.35 244.738 Q1729.35 239.391 1727.82 234.182 Q1726.31 228.974 1723.24 223.65 Z" fill="#000000" fill-rule="nonzero" fill-opacity="1" /><path clip-path="url(#clip810)" d="M1760.06 225.062 L1772.63 237.955 L1767.98 237.955 L1757.8 228.812 L1747.61 237.955 L1742.96 237.955 L1755.53 225.062 L1760.06 225.062 Z" fill="#000000" fill-rule="nonzero" fill-opacity="1" /><path clip-path="url(#clip810)" d="M1786.75 255.687 L1803.07 255.687 L1803.07 259.622 L1781.13 259.622 L1781.13 255.687 Q1783.79 252.932 1788.37 248.303 Q1792.98 243.65 1794.16 242.307 Q1796.41 239.784 1797.29 238.048 Q1798.19 236.289 1798.19 234.599 Q1798.19 231.844 1796.24 230.108 Q1794.32 228.372 1791.22 228.372 Q1789.02 228.372 1786.57 229.136 Q1784.14 229.9 1781.36 231.451 L1781.36 226.729 Q1784.18 225.594 1786.64 225.016 Q1789.09 224.437 1791.13 224.437 Q1796.5 224.437 1799.69 227.122 Q1802.89 229.807 1802.89 234.298 Q1802.89 236.428 1802.08 238.349 Q1801.29 240.247 1799.18 242.84 Q1798.61 243.511 1795.5 246.728 Q1792.4 249.923 1786.75 255.687 Z" fill="#000000" fill-rule="nonzero" fill-opacity="1" /><path clip-path="url(#clip810)" d="M1812.84 238.094 L1842.52 238.094 L1842.52 241.983 L1812.84 241.983 L1812.84 238.094 M1812.84 247.539 L1842.52 247.539 L1842.52 251.474 L1812.84 251.474 L1812.84 247.539 Z" fill="#000000" fill-rule="nonzero" fill-opacity="1" /><path clip-path="url(#clip810)" d="M1863.19 240.479 Q1860.04 240.479 1858.19 242.631 Q1856.36 244.784 1856.36 248.534 Q1856.36 252.261 1858.19 254.437 Q1860.04 256.59 1863.19 256.59 Q1866.34 256.59 1868.17 254.437 Q1870.02 252.261 1870.02 248.534 Q1870.02 244.784 1868.17 242.631 Q1866.34 240.479 1863.19 240.479 M1872.47 225.826 L1872.47 230.085 Q1870.71 229.252 1868.91 228.812 Q1867.12 228.372 1865.36 228.372 Q1860.74 228.372 1858.28 231.497 Q1855.85 234.622 1855.5 240.941 Q1856.87 238.928 1858.93 237.863 Q1860.99 236.775 1863.47 236.775 Q1868.67 236.775 1871.68 239.946 Q1874.72 243.094 1874.72 248.534 Q1874.72 253.858 1871.57 257.076 Q1868.42 260.293 1863.19 260.293 Q1857.19 260.293 1854.02 255.71 Q1850.85 251.103 1850.85 242.377 Q1850.85 234.182 1854.74 229.321 Q1858.63 224.437 1865.18 224.437 Q1866.94 224.437 1868.72 224.784 Q1870.53 225.131 1872.47 225.826 Z" fill="#000000" fill-rule="nonzero" fill-opacity="1" /><path clip-path="url(#clip810)" d="M1882.77 253.742 L1887.66 253.742 L1887.66 259.622 L1882.77 259.622 L1882.77 253.742 Z" fill="#000000" fill-rule="nonzero" fill-opacity="1" /><path clip-path="url(#clip810)" d="M1898.65 255.687 L1906.29 255.687 L1906.29 229.321 L1897.98 230.988 L1897.98 226.729 L1906.24 225.062 L1910.92 225.062 L1910.92 255.687 L1918.56 255.687 L1918.56 259.622 L1898.65 259.622 L1898.65 255.687 Z" fill="#000000" fill-rule="nonzero" fill-opacity="1" /><path clip-path="url(#clip810)" d="M1932.03 255.687 L1948.35 255.687 L1948.35 259.622 L1926.41 259.622 L1926.41 255.687 Q1929.07 252.932 1933.65 248.303 Q1938.26 243.65 1939.44 242.307 Q1941.68 239.784 1942.56 238.048 Q1943.47 236.289 1943.47 234.599 Q1943.47 231.844 1941.52 230.108 Q1939.6 228.372 1936.5 228.372 Q1934.3 228.372 1931.85 229.136 Q1929.42 229.9 1926.64 231.451 L1926.64 226.729 Q1929.46 225.594 1931.92 225.016 Q1934.37 224.437 1936.41 224.437 Q1941.78 224.437 1944.97 227.122 Q1948.17 229.807 1948.17 234.298 Q1948.17 236.428 1947.36 238.349 Q1946.57 240.247 1944.46 242.84 Q1943.88 243.511 1940.78 246.728 Q1937.68 249.923 1932.03 255.687 Z" fill="#000000" fill-rule="nonzero" fill-opacity="1" /><path clip-path="url(#clip810)" d="M1958.21 225.062 L1976.57 225.062 L1976.57 228.997 L1962.49 228.997 L1962.49 237.469 Q1963.51 237.122 1964.53 236.96 Q1965.55 236.775 1966.57 236.775 Q1972.35 236.775 1975.73 239.946 Q1979.11 243.117 1979.11 248.534 Q1979.11 254.113 1975.64 257.215 Q1972.17 260.293 1965.85 260.293 Q1963.67 260.293 1961.41 259.923 Q1959.16 259.552 1956.75 258.812 L1956.75 254.113 Q1958.84 255.247 1961.06 255.802 Q1963.28 256.358 1965.76 256.358 Q1969.76 256.358 1972.1 254.252 Q1974.44 252.145 1974.44 248.534 Q1974.44 244.923 1972.1 242.816 Q1969.76 240.71 1965.76 240.71 Q1963.88 240.71 1962.01 241.127 Q1960.16 241.543 1958.21 242.423 L1958.21 225.062 Z" fill="#000000" fill-rule="nonzero" fill-opacity="1" /></svg>
