<svg class="main-svg" xmlns="http://www.w3.org/2000/svg" xmlns:xlink="http://www.w3.org/1999/xlink" width="700" height="500" style="" viewBox="0 0 700 500"><rect x="0" y="0" width="700" height="500" style="fill: rgb(255, 255, 255); fill-opacity: 1;"/><defs id="defs-208aab"><g class="clips"><clipPath id="clip208aabxyplot" class="plotclip"><rect width="580.9512447307723" height="367.9636920384952"/></clipPath><clipPath class="axesclip" id="clip208aabx"><rect x="64.57488268511891" y="0" width="580.9512447307723" height="500"/></clipPath><clipPath class="axesclip" id="clip208aaby"><rect x="0" y="64.5697412823397" width="700" height="367.9636920384952"/></clipPath><clipPath class="axesclip" id="clip208aabxy"><rect x="64.57488268511891" y="64.5697412823397" width="580.9512447307723" height="367.9636920384952"/></clipPath></g><g class="gradients"/><g class="patterns"/></defs><g class="bglayer"/><g class="layer-below"><g class="imagelayer"/><g class="shapelayer"/></g><g class="cartesianlayer"><g class="subplot xy"><g class="layer-subplot"><g class="shapelayer"/><g class="imagelayer"/></g><g class="gridlayer"><g class="x"><path class="xgrid crisp" transform="translate(104.07488268511891,0)" d="M0,64.5697412823397v367.9636920384952" style="stroke: rgb(0, 0, 0); stroke-opacity: 0.1; stroke-width: 0.5px;"/><path class="xgrid crisp" transform="translate(183.0748826851189,0)" d="M0,64.5697412823397v367.9636920384952" style="stroke: rgb(0, 0, 0); stroke-opacity: 0.1; stroke-width: 0.5px;"/><path class="xgrid crisp" transform="translate(262.0748826851189,0)" d="M0,64.5697412823397v367.9636920384952" style="stroke: rgb(0, 0, 0); stroke-opacity: 0.1; stroke-width: 0.5px;"/><path class="xgrid crisp" transform="translate(341.0648826851189,0)" d="M0,64.5697412823397v367.9636920384952" style="stroke: rgb(0, 0, 0); stroke-opacity: 0.1; stroke-width: 0.5px;"/><path class="xgrid crisp" transform="translate(420.0648826851189,0)" d="M0,64.5697412823397v367.9636920384952" style="stroke: rgb(0, 0, 0); stroke-opacity: 0.1; stroke-width: 0.5px;"/><path class="xgrid crisp" transform="translate(499.0648826851189,0)" d="M0,64.5697412823397v367.9636920384952" style="stroke: rgb(0, 0, 0); stroke-opacity: 0.1; stroke-width: 0.5px;"/><path class="xgrid crisp" transform="translate(578.064882685119,0)" d="M0,64.5697412823397v367.9636920384952" style="stroke: rgb(0, 0, 0); stroke-opacity: 0.1; stroke-width: 0.5px;"/></g><g class="y"><path class="ygrid crisp" transform="translate(0,403.6897412823397)" d="M64.57488268511891,0h580.9512447307723" style="stroke: rgb(0, 0, 0); stroke-opacity: 0.1; stroke-width: 0.5px;"/><path class="ygrid crisp" transform="translate(0,334.8897412823397)" d="M64.57488268511891,0h580.9512447307723" style="stroke: rgb(0, 0, 0); stroke-opacity: 0.1; stroke-width: 0.5px;"/><path class="ygrid crisp" transform="translate(0,266.08974128233973)" d="M64.57488268511891,0h580.9512447307723" style="stroke: rgb(0, 0, 0); stroke-opacity: 0.1; stroke-width: 0.5px;"/><path class="ygrid crisp" transform="translate(0,197.2997412823397)" d="M64.57488268511891,0h580.9512447307723" style="stroke: rgb(0, 0, 0); stroke-opacity: 0.1; stroke-width: 0.5px;"/><path class="ygrid crisp" transform="translate(0,128.4997412823397)" d="M64.57488268511891,0h580.9512447307723" style="stroke: rgb(0, 0, 0); stroke-opacity: 0.1; stroke-width: 0.5px;"/></g></g><g class="zerolinelayer"/><path class="xlines-below"/><path class="ylines-below"/><g class="overlines-below"/><g class="xaxislayer-below"/><g class="yaxislayer-below"/><g class="overaxes-below"/><g class="plot" transform="translate(64.57488268511891,64.5697412823397)" clip-path="url(#clip208aabxyplot)"><g class="scatterlayer mlayer"><g class="trace scatter tracea6b822" style="stroke-miterlimit: 2; opacity: 1;"><g class="fills"/><g class="errorbars"/><g class="lines"><path class="js-line" d="M0,10.41L4.88,59.86L5.97,69.46L12.53,118.41L13.62,125.36L19.08,156.11L21.27,166.81L27.83,194.57L30.01,202.6L38.76,230.01L41.38,237.02L49.26,255.37L51.89,260.72L59.77,274.91L64.21,281.86L73.1,293.89L77.54,299.13L87.19,309.02L92.02,313.31L105.74,323.61L110.19,326.44L124.18,334L133.72,338.2L155.82,345.64L165.65,348.13L184.08,351.75L192.69,353.06L211.48,355.19L230.37,356.55L271.13,357.55L291.8,357.34L349.89,355.3L367.85,354.42L503.77,348.19L523,347.67L580.95,346.98" style="vector-effect: non-scaling-stroke; fill: none; stroke: rgb(0, 154, 250); stroke-opacity: 1; stroke-width: 1px; opacity: 1;"/></g><g class="points"/><g class="text"/></g></g></g><g class="overplot"/><path class="xlines-above crisp" d="M63.57488268511891,433.0334333208349H645.5261274158912" style="fill: none; stroke-width: 1px; stroke: rgb(0, 0, 0); stroke-opacity: 1;"/><path class="ylines-above crisp" d="M64.07488268511891,64.5697412823397V432.5334333208349" style="fill: none; stroke-width: 1px; stroke: rgb(0, 0, 0); stroke-opacity: 1;"/><g class="overlines-above"/><g class="xaxislayer-above"><path class="xtick ticks crisp" d="M0,432.5334333208349v-5" transform="translate(104.07488268511891,0)" style="stroke: rgb(0, 0, 0); stroke-opacity: 1; stroke-width: 1px;"/><path class="xtick ticks crisp" d="M0,432.5334333208349v-5" transform="translate(183.0748826851189,0)" style="stroke: rgb(0, 0, 0); stroke-opacity: 1; stroke-width: 1px;"/><path class="xtick ticks crisp" d="M0,432.5334333208349v-5" transform="translate(262.0748826851189,0)" style="stroke: rgb(0, 0, 0); stroke-opacity: 1; stroke-width: 1px;"/><path class="xtick ticks crisp" d="M0,432.5334333208349v-5" transform="translate(341.0648826851189,0)" style="stroke: rgb(0, 0, 0); stroke-opacity: 1; stroke-width: 1px;"/><path class="xtick ticks crisp" d="M0,432.5334333208349v-5" transform="translate(420.0648826851189,0)" style="stroke: rgb(0, 0, 0); stroke-opacity: 1; stroke-width: 1px;"/><path class="xtick ticks crisp" d="M0,432.5334333208349v-5" transform="translate(499.0648826851189,0)" style="stroke: rgb(0, 0, 0); stroke-opacity: 1; stroke-width: 1px;"/><path class="xtick ticks crisp" d="M0,432.5334333208349v-5" transform="translate(578.064882685119,0)" style="stroke: rgb(0, 0, 0); stroke-opacity: 1; stroke-width: 1px;"/><g class="xtick"><text text-anchor="middle" x="0" y="446.7334333208349" transform="translate(104.07488268511891,0)" style="font-family: sans-serif; font-size: 11px; fill: rgb(0, 0, 0); fill-opacity: 1; white-space: pre; opacity: 1;">0.2</text></g><g class="xtick"><text text-anchor="middle" x="0" y="446.7334333208349" style="font-family: sans-serif; font-size: 11px; fill: rgb(0, 0, 0); fill-opacity: 1; white-space: pre; opacity: 1;" transform="translate(183.0748826851189,0)">0.4</text></g><g class="xtick"><text text-anchor="middle" x="0" y="446.7334333208349" style="font-family: sans-serif; font-size: 11px; fill: rgb(0, 0, 0); fill-opacity: 1; white-space: pre; opacity: 1;" transform="translate(262.0748826851189,0)">0.6</text></g><g class="xtick"><text text-anchor="middle" x="0" y="446.7334333208349" style="font-family: sans-serif; font-size: 11px; fill: rgb(0, 0, 0); fill-opacity: 1; white-space: pre; opacity: 1;" transform="translate(341.0648826851189,0)">0.8</text></g><g class="xtick"><text text-anchor="middle" x="0" y="446.7334333208349" style="font-family: sans-serif; font-size: 11px; fill: rgb(0, 0, 0); fill-opacity: 1; white-space: pre; opacity: 1;" transform="translate(420.0648826851189,0)">1.0</text></g><g class="xtick"><text text-anchor="middle" x="0" y="446.7334333208349" style="font-family: sans-serif; font-size: 11px; fill: rgb(0, 0, 0); fill-opacity: 1; white-space: pre; opacity: 1;" transform="translate(499.0648826851189,0)">1.2</text></g><g class="xtick"><text text-anchor="middle" x="0" y="446.7334333208349" style="font-family: sans-serif; font-size: 11px; fill: rgb(0, 0, 0); fill-opacity: 1; white-space: pre; opacity: 1;" transform="translate(578.064882685119,0)">1.4</text></g></g><g class="yaxislayer-above"><path class="ytick ticks crisp" d="M64.57488268511891,0h5" transform="translate(0,403.6897412823397)" style="stroke: rgb(0, 0, 0); stroke-opacity: 1; stroke-width: 1px;"/><path class="ytick ticks crisp" d="M64.57488268511891,0h5" transform="translate(0,334.8897412823397)" style="stroke: rgb(0, 0, 0); stroke-opacity: 1; stroke-width: 1px;"/><path class="ytick ticks crisp" d="M64.57488268511891,0h5" transform="translate(0,266.08974128233973)" style="stroke: rgb(0, 0, 0); stroke-opacity: 1; stroke-width: 1px;"/><path class="ytick ticks crisp" d="M64.57488268511891,0h5" transform="translate(0,197.2997412823397)" style="stroke: rgb(0, 0, 0); stroke-opacity: 1; stroke-width: 1px;"/><path class="ytick ticks crisp" d="M64.57488268511891,0h5" transform="translate(0,128.4997412823397)" style="stroke: rgb(0, 0, 0); stroke-opacity: 1; stroke-width: 1px;"/><g class="ytick"><text text-anchor="end" x="61.374882685118905" y="3.8499999999999996" transform="translate(0,403.6897412823397)" style="font-family: sans-serif; font-size: 11px; fill: rgb(0, 0, 0); fill-opacity: 1; white-space: pre; opacity: 1;">2</text></g><g class="ytick"><text text-anchor="end" x="61.374882685118905" y="3.8499999999999996" style="font-family: sans-serif; font-size: 11px; fill: rgb(0, 0, 0); fill-opacity: 1; white-space: pre; opacity: 1;" transform="translate(0,334.8897412823397)">3</text></g><g class="ytick"><text text-anchor="end" x="61.374882685118905" y="3.8499999999999996" style="font-family: sans-serif; font-size: 11px; fill: rgb(0, 0, 0); fill-opacity: 1; white-space: pre; opacity: 1;" transform="translate(0,266.08974128233973)">4</text></g><g class="ytick"><text text-anchor="end" x="61.374882685118905" y="3.8499999999999996" style="font-family: sans-serif; font-size: 11px; fill: rgb(0, 0, 0); fill-opacity: 1; white-space: pre; opacity: 1;" transform="translate(0,197.2997412823397)">5</text></g><g class="ytick"><text text-anchor="end" x="61.374882685118905" y="3.8499999999999996" style="font-family: sans-serif; font-size: 11px; fill: rgb(0, 0, 0); fill-opacity: 1; white-space: pre; opacity: 1;" transform="translate(0,128.4997412823397)">6</text></g></g><g class="overaxes-above"/></g></g><g class="polarlayer"/><g class="ternarylayer"/><g class="geolayer"/><g class="funnelarealayer"/><g class="pielayer"/><g class="iciclelayer"/><g class="treemaplayer"/><g class="sunburstlayer"/><g class="glimages"/><defs id="topdefs-208aab"><g class="clips"/><clipPath id="legend208aab"><rect width="78" height="29" x="1" y="1"/></clipPath></defs><g class="layer-above"><g class="imagelayer"/><g class="shapelayer"/></g><g class="infolayer"><g class="legend" pointer-events="all" transform="translate(570,60)"><rect class="bg" shape-rendering="crispEdges" style="stroke: rgb(0, 0, 0); stroke-opacity: 1; fill: rgb(255, 255, 255); fill-opacity: 1; stroke-width: 1px;" width="79" height="30" x="0.5" y="0.5"/><g class="scrollbox" transform="" clip-path="url(#legend208aab)"><g class="groups"><g class="traces" transform="translate(1,15.5)" style="opacity: 1;"><text class="legendtext" text-anchor="start" x="40" y="4.29" style="font-family: sans-serif; font-size: 11px; fill: rgb(0, 0, 0); fill-opacity: 1; white-space: pre;">y=A(θ)</text><g class="layers" style="opacity: 1;"><g class="legendfill"/><g class="legendlines"><path class="js-line" d="M5,0h30" style="fill: none; stroke: rgb(0, 154, 250); stroke-opacity: 1; stroke-width: 1px;"/></g><g class="legendsymbols"><g class="legendpoints"/></g></g><rect class="legendtoggle" x="0" y="-9.5" width="72.71875" height="19" style="fill: rgb(0, 0, 0); fill-opacity: 0;"/></g></g></g><rect class="scrollbar" rx="20" ry="3" width="0" height="0" style="fill: rgb(128, 139, 164); fill-opacity: 1;" x="0" y="0"/></g><g class="g-gtitle"/><g class="g-xtitle"/><g class="g-ytitle"/></g></svg>